<?xml version="1.0" encoding="utf-8"?>
<!-- Generator: Adobe Illustrator 25.0.1, SVG Export Plug-In . SVG Version: 6.00 Build 0)  -->
<svg version="1.0" id="katman_1" xmlns="http://www.w3.org/2000/svg" xmlns:xlink="http://www.w3.org/1999/xlink" x="0px" y="0px"
	 viewBox="0 0 604.2 383.4" style="enable-background:new 0 0 604.2 383.4;" xml:space="preserve">
<style type="text/css">
	.st0{clip-path:url(#SVGID_2_);}
	.st1{fill:none;stroke:#000000;stroke-width:3.7594;stroke-miterlimit:30.1958;}
	.st2{fill:#F15A29;}
	.st3{fill:#152B75;}
	.st4{fill-rule:evenodd;clip-rule:evenodd;fill:#FFFFFF;}
	.st5{fill-rule:evenodd;clip-rule:evenodd;fill:#ED1C24;}
	.st6{fill:#FFFFFF;}
	.st7{fill:#FFFF00;}
	.st8{fill:#D40000;}
	.st9{fill-rule:evenodd;clip-rule:evenodd;fill:#0000AA;}
	.st10{fill-rule:evenodd;clip-rule:evenodd;fill:#000080;}
	.st11{fill-rule:evenodd;clip-rule:evenodd;fill:#231F20;}
	.st12{fill:#F9F9F9;stroke:#FFFFFF;stroke-width:8.156900e-02;stroke-miterlimit:2.613;}
	.st13{fill:none;stroke:#666666;stroke-width:1.6494;stroke-linecap:round;stroke-linejoin:round;stroke-miterlimit:24.1567;}
</style>
<g transform="translate(-310.74132 -338.54041)">
	<g>
		<defs>
			<line id="SVGID_1_" x1="-1679.5" y1="-1484.2" x2="-1679.5" y2="4701"/>
		</defs>
		<clipPath id="SVGID_2_">
			<use xlink:href="#SVGID_1_"  style="overflow:visible;"/>
		</clipPath>
		<g transform="matrix(1.25 0 0 -1.25 -52.380625 1072.3616)" class="st0">
			<g transform="translate(22.174 45)">
				<path class="st1" d="M-1324.8-2811h-136"/>
				<path class="st1" d="M-1326.1,1863.3h-134.7"/>
			</g>
		</g>
	</g>
	<g>
		<path class="st2" d="M464.5,616.5l-83,0.1l0-2.2l61.1-2.4c11.6-0.4,22.9-1,33.8-4.8c22.3-7.5,40.2-22.7,45.4-41.5
			c5.6-20.2-7.3-39.8-31.6-41.5c20.6-6,38.2-19.1,42.9-35.9c6.1-21.8-4.9-32.9-23.5-36.9c30.9-0.5,55,9.9,46.8,39.4
			c-4.7,16.8-22.7,29.6-43.2,35.2c24.1,1.8,37.2,24.7,30.9,44.7c-6.6,20.8-23.4,33.7-45.8,41.2C487.4,615.4,476.2,616,464.5,616.5"
			/>
		<path class="st2" d="M421,606l-39.2,1.9c0-1-0.1-1.3-0.2-2.3l99-28.6l0.1-1.6l-100.3,24.1c-0.3-0.9-0.4-1.2-0.8-2.1L484.9,539
			l-0.7-1.6l-107.8,55.1c-0.7-0.9-0.6-1-1.3-1.8l125.3-118.1l-1.1-1.3l-129,115.4c-0.6-0.4-0.9-0.8-1.6-1.2L460.3,452l-1.6-0.5
			L363.3,583c-0.5-0.2-1.1-0.3-1.6-0.5l52.4-129.1l-1.4-0.2l-59,128.1c-0.7,0-1.5,0-2.2,0.1l-0.5,0l38-137.4l71.1,0.2
			c33.6-1.9,60.2,7.2,51.4,38.5c-4.7,16.8-22.3,29.9-42.8,35.5l-0.1,0.4c24.3,1.7,38,21.3,32.4,41.5c-5.2,18.8-24,33.5-46.3,41
			C443.8,605,432.6,605.6,421,606"/>
		<path class="st2" d="M718.8,449.3c-1.6,6.1-4.4,6.4-7.9,6.4h-6.8c-5.7,0-6.1-2.4-5-6.4h6.7c-0.7,2.1-1.5,4,2.1,4
			c2.4,0,3.1-0.6,4-3.8L718.8,449.3z M777.2,481l-5.1-6.6l-0.4,1.7c-1.3,5-1.2,7.1,1.9,7.1C775.2,483.2,776.3,482.5,777.2,481z
			 M773.3,471.2l5.1,6.6l0.5-1.8c1-4,1.8-6.8-1.8-6.8C775.2,469.2,774.1,470,773.3,471.2z M806.8,467.9l1.4-5.8h-19.1l-7.2,28h-6.4
			l1.7-6.1c-1.8,2-5.1,2.6-7.7,2.6c-7,0-5.9-6.8-4.8-10.9c1-4.1,3.2-10,10-10c2.4,0,5.1,0.7,6.1,2.4l1.5-6h-15.6l1-3.1h45.8l-5.6-7
			l4.7-3.4l6,10.4h1.8l-4.8-12.6l5.7-2.5l3.3,15.2h43.2l-1,3.1h-3.6l-7.2,28.1h-6.4l7.2-28.1h-5.6l-2.2,7.1h-9
			c-2.9,0-3.7,3.5-4.9,8.7c-1.4,6.2-2.6,10,1.5,10c0.3,0,0.7-0.1,1.3-0.3c-0.4-3.8,1.8-8.3,6.3-8.3c4.1,0,4.2,2.3,3.6,4.3
			c-0.8,2.8-2.2,4.3-5,5.1c1.4,2.7,4.9,2.9,4.9,2.9l-6.9,3.8c-1.6-1.9-2.5-3.5-2.8-5.5c-1.7,0.5-3.6,0.6-5,0.6
			c-8.3,0-6.9-8.1-5.5-13.6c1.4-5.7,3.9-10.6,10.7-10.6c2.4,0,5.2,0.2,5.2,0.2l1.2-4.3h-18.1l-7.2,28.1h-6.4l7.2-28.1h-5.2l-2.6,9.9
			h-6.5c0.6-2.2-0.5-3-3.2-3c-2.5,0-3.2,0.4-4.2,3.9c-0.7,3,0.1,3.7,3.1,3.6h5.1c3.8,0,4.5,1.4,3.1,7c-1.7,6.3-4.7,6.7-8.6,6.7h-7.5
			c-6.6,0-6.8-2.9-5.3-7.7h7.4c-0.7,2.5-2.2,5,2.1,5c2.6,0,3.5-0.6,4.5-4.3c0.8-2.6,1-4-2.9-4c0,0-3.5,0-5.2,0
			c-4.4,0-3.7-3.7-2.9-6.8c1.6-5.7,2.7-6.4,9.3-6.4C804.5,466,806.3,466.4,806.8,467.9z M628.9,483.2c2.3,0,3.3-2.1,4.6-7.2
			c1-4,1.8-6.8-1-6.8c-2.9,0-3.6,2.8-4.6,6.8C626.6,481.1,626.5,483.2,628.9,483.2z M630.1,490.2c1.7-6.1,1.7-6.1,1.7-6.1
			L630.1,490.2z M607.8,480.7l-5.1-6.7c-0.2,0.6-0.4,1.3-0.5,2c-1.3,5-1.2,7.1,1.8,7.1C605.8,483.2,606.9,482.4,607.8,480.7z
			 M603.9,471l5,6.5l0.4-1.5c1-4,1.8-6.8-1.8-6.8C605.8,469.2,604.7,469.9,603.9,471z M608.9,459.1l-5.6-7l4.7-3.4l6,10.4h1.8
			l-4.8-12.6l5.7-2.5l3.3,15.2h37.5l-1,3.1h-13l-1.6,6.5c1.7-2,3.9-2.7,6.5-2.7c7,0,5.5,6.6,4.4,10.8c-1,4.1-2.8,9.9-9.6,9.9
			c-1.3,0-2.6-0.3-3.3-0.9l0.5-1.8c0.2,0,0.4,0.2,0.6,0.2c2.9,0,3.7-3.5,4.8-7.5c1.3-5,1.4-7.2-1-7.2c-2,0-3.2,1.5-4.4,5.4
			l-3.8,15.4l-6.4,0l1.7-6.1c-1.8,2-3.9,2.6-6.5,2.6c-7,0-5.4-7-4.4-11.1c1-4.1,2.7-9.7,9.6-9.7c2.5,0,4,0.6,4.9,2.3l1.5-6h-17.4
			l-7.2,28H606l1.7-6.1c-1.9,2-5.1,2.6-7.7,2.6c-7,0-5.6-7.2-4.6-11.3c1-4,3-9.6,9.8-9.6c2.5,0,5.2,0.7,6.1,2.4l1.5-6h-15.7l1-3.1
			H608.9z M674.7,490.1h-9.6l0.8-3.2h8.4c2.1,0,5.3-1.2,6.3-5.4c0.7-2.7-0.5-5.7-4.3-5.7H670l0.8-3.5h7.3c2.6,0,4.6-2.2,5.3-5.1
			c0.6-2.2,0.4-5.2-3.4-5.2h-7.8l0.8-3.2h9.4c4.8,0,10,2.1,8.6,7.8c-1,4.3-3.2,6.4-8.3,7.2c5.2,0.7,6.2,4.2,5.2,8.3
			C686,489.8,677.9,490.1,674.7,490.1z M732.7,462.1h-5.1l-4,15.3c-0.5,1.8-0.4,3.1,1.8,3.1c2.2,0,3-2,3.4-3.8L732.7,462.1z
			 M694.5,459.1h57.6l-1,3.1h-11.7l-1.9,7.4c1.8-1.8,4-2.5,6.5-2.5c3.2,0,5.6,1.6,4.9,4.4l-4.1,16.1h-6.8l3.6-13.8
			c0.5-1.8,0.4-3.2-1.7-3.2c-1.6,0-2.6,1.3-3.3,2.7l-1.7,6.5c-0.3,1.3-2.2,9.2-2.4,10.5h-7l2.1-8.6c-1.9,1.8-3.9,2.4-6.4,2.4
			c-3.2,0-5.6-1.6-4.9-4.4l4.5-17.5h-5.4l-7.2,28.1h-6.4l7.2-28.1h-5.1l-7.2,28.1h-6.4l3.8-14.7h-5.2l0.9-3.1h5.2l2.6-10.2h-4
			L694.5,459.1z M622.6,451.4h6.1l-1.4,5.1h-6.1L622.6,451.4z M715.6,488.1h6.1l-1.4,5.1h-6.1L715.6,488.1z M793.4,493.1h6.1
			l-1.4,5.1h-6.1L793.4,493.1z"/>
		<path class="st2" d="M603.2,530.7h4.4c3.8,0,4.6,1.9,3.9,5.2c-1.1,5-4.7,5.1-6.3,5.1H601L603.2,530.7z M606.4,515.9h4.7
			c2.5,0,3.9,2,3.4,4.6c-0.7,3.5-3.3,4.6-4.9,4.6h-5.1L606.4,515.9z M605.7,546.5c3.2,0,11.3-0.4,13.2-9.6c1.1-4.9,0.4-8.4-4.8-9.2
			l0-0.1c4.3-0.8,7-3.8,7.9-8c1.6-7.7-2.8-9.4-8.5-9.4H600l-7.7,36.1H605.7"/>
		<path class="st2" d="M635.2,534.3c-0.6,2.7-1.1,8.4-5.3,8.4c-2.3,0-2.1-2.2-1.8-4C629.1,534.1,631.6,534.4,635.2,534.3z
			 M643.1,529.2c1-4.6,0.6-8.5-8.3-8.5c-2.7,0-5.1,0.4-7,1.7c-1.9,1.2-3.3,3.1-3.9,6.1h6.9c0.4-2,1-3.8,3.5-3.8
			c2.6,0,2.5,1.6,2.1,3.7l-0.4,1.9c-6.5-0.1-13.1,0.2-14.8,8.6c-0.9,4.4,0.1,8.1,5,8.1c3.1,0,5.4-1.3,7.4-3.8h0.1l-0.4,3.3h6.6
			c0.2-1.5,0.3-3.2,0.6-4.7L643.1,529.2z"/>
		<path class="st2" d="M655.6,521.2h-7.1l-5.4,25.3h7.1l3.7-17.4c0.5-2.2,1.2-4,3.5-4c2.3,0,2.3,1.8,1.8,4l-3.7,17.4h7.1l4.3-20.3
			c0.7-3.5-1.8-5.5-5.1-5.5c-2.7,0-4.7,0.8-6.6,3.1h-0.1L655.6,521.2z"/>
		<path class="st2" d="M673,546.5l2.9-13.8h0.1l3.6,13.8h8l-5-14l9.5-11.3h-7.4l-8.6,10.6h-0.1l4.6-21.5h-7.1l-7.7,36.1H673z"/>
		<path class="st2" d="M706.4,542.5c-2.6,0-2.9-1.7-1.3-9.4c1.1-5.3,1.9-7.9,4.9-7.9s2.7,2.6,1.6,7.9
			C710,540.8,709,542.5,706.4,542.5z M705.4,547c9.1,0,11.5-5.6,13.2-13.5c1.5-6.9,1.7-12.8-7.6-12.8c-9.3,0-11.6,5.9-13,12.8
			C696.3,541.4,696.3,547,705.4,547"/>
		<path class="st2" d="M737.3,510.2c-0.8-0.1-1.6-0.1-2.5-0.1c-8.6,0-8.8,3.8-10.3,11.1h-3.2l-0.9,4.3h3.2l-4.4,20.9h7.1l4.4-20.9
			h3.3l0.9-4.3h-3.3l0.6-3.1c0.5-2.6,1.4-3.7,4.2-3.5L737.3,510.2z"/>
		<path class="st2" d="M750.9,530.7h4.4c3.8,0,4.6,1.9,3.9,5.2c-1.1,5-4.7,5.1-6.3,5.1h-4.2L750.9,530.7z M754,515.9h4.6
			c2.6,0,3.9,2,3.4,4.6c-0.7,3.5-3.3,4.6-4.9,4.6h-5.1L754,515.9z M753.3,546.5c3.2,0,11.2-0.4,13.2-9.6c1.1-4.9,0.4-8.4-4.8-9.2
			l0-0.1c4.3-0.8,7-3.8,7.9-8c1.6-7.7-2.8-9.4-8.5-9.4h-13.4l-7.7,36.1H753.3z"/>
		<path class="st2" d="M782.8,534.3c-0.6,2.7-1.1,8.4-5.3,8.4c-2.3,0-2.1-2.2-1.7-4C776.8,534.1,779.3,534.4,782.8,534.3z
			 M790.8,529.2c1-4.6,0.6-8.5-8.3-8.5c-2.7,0-5.1,0.4-6.9,1.7c-1.9,1.2-3.3,3.1-3.9,6.1h6.9c0.4-2,1-3.8,3.5-3.8
			c2.6,0,2.5,1.6,2.1,3.7l-0.4,1.9c-6.5-0.1-13.1,0.2-14.8,8.6c-0.9,4.4,0.1,8.1,5,8.1c3.1,0,5.4-1.3,7.4-3.8h0.1l-0.4,3.3h6.5
			c0.2-1.5,0.3-3.2,0.7-4.7L790.8,529.2z"/>
		<path class="st2" d="M796.3,521.2l-5.4,25.3h7.1l2.9-13.8c0.5-2.5,1.4-6.1,7.5-5.7l1.3-6.3c-2.8,0-5.4,0.8-7.4,3.8h-0.1l0.7-3.2
			H796.3z"/>
		<path class="st2" d="M816,542.5c-2.6,0-2.9-1.7-1.3-9.4c1.1-5.3,1.9-7.9,4.9-7.9c3,0,2.7,2.6,1.6,7.9
			C819.6,540.8,818.6,542.5,816,542.5z M815,547c9.1,0,11.5-5.6,13.2-13.5c1.5-6.9,1.7-12.8-7.6-12.8c-9.3,0-11.6,5.9-13,12.8
			C805.9,541.4,805.9,547,815,547"/>
		<path class="st2" d="M838.6,542.6c-2.5,0-2.4-2.6-1.1-9c1.1-5.1,1.8-8.6,4.8-8.6c2.9,0,2.1,3.5,1,8.6
			C842,540,841,542.6,838.6,542.6z M847.6,546.5l7.7-36.1h-7.1l-2.8,13.3h-0.1c-1-2.2-2.6-2.9-5.1-2.9c-7.1,0-8.6,7.9-9.7,12.9
			c-1.1,5.2-3.1,13.3,4.2,13.3c2.7,0,4.8-0.8,6.7-3.3h0.1l-0.6,2.8H847.6z"/>
		<path class="st2" d="M866.1,534.3c-0.6,2.7-1.1,8.4-5.3,8.4c-2.3,0-2.1-2.2-1.8-4C860,534.1,862.6,534.4,866.1,534.3z
			 M874.1,529.2c1-4.6,0.6-8.5-8.3-8.5c-2.7,0-5.1,0.4-7,1.7c-1.9,1.2-3.3,3.1-3.9,6.1h6.9c0.4-2,1-3.8,3.5-3.8
			c2.5,0,2.5,1.6,2.1,3.7l-0.4,1.9c-6.5-0.1-13.1,0.2-14.8,8.6c-0.9,4.4,0.1,8.1,5,8.1c3.1,0,5.4-1.3,7.4-3.8h0.1l-0.4,3.3h6.6
			c0.2-1.5,0.3-3.2,0.7-4.7L874.1,529.2z"/>
	</g>
	<g transform="matrix(.27311748 0 0 .27311748 222.94256 282.89846)">
		<path class="st3" d="M1903.5,1219.4h482.9v-184.8h-482.9V1219.4z"/>
		<g>
			<path class="st4" d="M1999,1097.9l0-2.9l13.9,0l4.9,0.2l4.5,0.6l3.9,0.8l4.1,1.2l4.3,1.6l4.2,2.1l3.1,1.9l3.5,2.5l3,2.6l2.7,2.9
				l2.2,2.8l2,3.2l1.6,3.3l1.2,3.2l0.9,3.6l0.4,3.3l0.1,3.6l-0.3,3.5l-0.7,3.2l-1,3.2l-1.5,3.4l-1.9,3.4l-2.2,3.3l-2.7,3.2l-3,3
				l-3.3,2.7l-3.4,2.1l-3.6,1.8l-3.7,1.4l-3.8,1l-3.9,0.7l-6.2,0.6l-4.6,0.3l-5.3,0.1l-6.2,0l-3.3,0l0-14l0-16.6l1.6,0l16,0l1.5-0.1
				c9.7-2.4,9.5-14-0.5-15.5l-2-0.1l-16.1,0l-0.6,0l0-11.5L1999,1097.9z"/>
			<path class="st4" d="M1953.1,1095v76.5h41.8V1095H1953.1z"/>
			<path class="st4" d="M1973.3,1165.2l-16.8,0l0-34.5l0-0.4l0.1-0.1l0.9-0.2l0.5-0.2l0.4-0.3l0.3-0.4l0.2-0.4l0.2-0.7l0.1-0.5
				l0-0.6l-0.2-0.8l-0.4-0.7l-0.9-1.1l-0.9-1.1l-0.5-0.9l-0.3-0.8l-0.1-0.6l-0.1-0.6l0.1-0.7l0.2-0.7l0.2-0.5l0.5-0.7l0.7-0.6
				l0.6-0.4l0.7-0.4l0.4-0.2l0.1-0.1l0-0.2l-0.6-0.9l-0.3-0.7l-0.1-0.4l-0.1-0.6l-0.1-0.7l0.1-0.7l0.2-0.6l0.3-0.7l0.6-1l0.4-0.5
				l0.4-0.4l0.5-0.4l0.7-0.4l0.8-0.3l0.8-0.2l0.8-0.1l0.7-0.1l1.1,0.1l0.8,0.1l0.1-0.1l0.1-0.2l0.3-0.7l0.4-0.7l0.6-0.8l0.7-0.7
				l0.9-0.6l0.7-0.4l0.6-0.2l1.3-0.3l1.3-0.1l1.4,0.1l0.3,0.1l0.5,0.1l0.8,0.3l0.9,0.4l0.7,0.4l0.8,0.6l0.5,0.5l0.6,0.9l0.4,0.8
				l0.2,0.4l0.1,0.1h0.3l1.5-0.3l1-0.1l0.8,0l0.8,0.1l0.9,0.3l0.7,0.4l0.4,0.3l0.4,0.4l0.7,0.9l0.2,0.4l0.2,0.6l0.2,0.7l0.1,0.8
				l-0.1,1.1l-0.2,0.7l-0.4,0.7l-0.9,1.2l0,0.1l0.1,0.1l0.5,0.1l0.6,0.1l0.5,0.2l0.7,0.4l0.6,0.5l0.4,0.5l0.4,0.6l0.2,0.7l0.1,0.5
				l0,0.9l-0.3,0.9l-0.5,1l-0.5,0.8l-0.8,1.1l-0.7,1.2l-0.4,1.1l-0.1,0.9l0.1,0.7l0.3,0.7l0.3,0.4l0.4,0.4l0.5,0.3l0.5,0.2l0.7,0.2
				l0.1,0.1l0,0.5l0,0.9l0,33.5l-16.2,0L1973.3,1165.2z"/>
			<path class="st5" d="M1973.5,1165.2l0-0.1l0-0.1l-0.3-0.3l-0.5-0.4l-0.8-0.6l-0.4-0.5l-0.4-0.7l-0.1-0.1l-0.2,0l-1.3,0.2l-0.7,0
				l-1.5-0.4l-0.3-0.1l-0.1-0.1l0-0.1l0.4-0.6l0-0.1l-0.1-0.1l-0.4-0.1l-1-0.4l-0.8-0.1l-0.1-0.1l-0.1-0.1l0.1-0.1l0.4-0.4l0.5-0.2
				l0.8-0.3l0.1-0.1l0-0.1l0-0.1l-1.1-1.3l-0.5-0.8l-0.2-0.4l-0.5-0.7l-0.1-0.3l0-0.2l0.2-0.2l0.1-0.4l0.1-0.1l0.3-0.1l0.2-0.1
				l0.2-0.3l0.1-0.1l0.6,0l0.2,0l0.3-0.3l0.1,0l0.2,0.1l0.2,0l0.2-0.2l0.2-0.1h0.2l0.3,0.1l0.2,0l0.1-0.1l0.2-0.2l0.2-0.1l0.5,0.1
				l0.1,0l0.3-0.3l0.1-0.4l-0.1-0.8l-0.1-0.4l-0.1-1.3l-0.3-1.5l-0.1-1l-0.1-0.8l0-0.7l-0.1-1.1l-0.2-1.6l-0.1-0.3l-0.3-0.9
				l-0.2-0.8l-0.1-0.8l-0.1-0.6l-0.4-2.4l0-1.4l0-0.6v-0.6l0.1-1.4l0.4-1.5l0.5-1.3l0-0.1l-0.1,0h-0.2l-0.2,0.1l-0.2,0.2l-0.4,0.5
				l-0.9,1l-0.3,0.3l-0.2,0.2l-0.1,0.4l-0.2,0.3l-0.2,0.4l-0.1,0.2l-0.2,0.2l-0.1,0.2l-0.1,0.3l0,1.2l-0.1,0.6l-0.1,0.5l-0.1,0.3
				l-0.1,0.1l-0.5,0.1l-0.2,0.1l-0.3,0.1l-0.6,0.1l-0.2,0l-0.2-0.2l-0.1-0.3l0-0.2l0.2-0.5l0-0.2l0-0.1l-0.2-0.1l-0.1-0.1l-0.1-0.1
				l0-0.2l0.3-1l0.2-0.6l0.2-0.4l0.5-0.5l0.1-0.5l0.3-0.3l0.2-0.3l0.3-0.3l0.6-0.9l0.4-0.8l0.4-0.9l0-0.2l-0.1-0.3l-0.5-0.7
				l-0.7-1.3l-0.2-0.2l-0.3-0.1l-0.2-0.1l-0.2-0.3l-0.2-0.3l-0.1-0.3l0-0.4l-0.3-0.5l-0.1-0.1l-0.1,0l-0.1,0.2l-0.1,0.1l-0.1,0
				l-0.1-0.1l0-0.2l0.2-0.7l0-0.3l-0.1-0.4v-0.3l0.1-0.3l0.4-0.5l0.5-0.4l0-0.1l-0.3-0.3l-0.1-0.1l0.1-0.1l0.1-0.1l0.6-0.2l0.1-0.1
				l0-0.2l-0.1-0.1l-0.4,0.1l-0.1-0.1l0-0.1l0-0.3l-0.1-0.1l-0.3-0.1l-0.6-0.3l-0.3-0.3l-0.2-0.3l0-0.2l0.1-0.1l0.5-0.2l0.2-0.1
				l0.2,0l0.3-0.1l0.4-0.1l0.3-0.1l0.4,0l0.2-0.1l0.2,0l0.2,0.1l0.4,0l0.5,0.1l0.2,0.1l0.2,0.2l0,0.2l-0.3,0.5l-0.3,0.4l-0.2,0.1
				l-0.1,0.2l0,0.1l0.1,0.3l0,0.2l-0.1,0.1l-0.2,0l-0.3-0.1l-0.2,0l-0.1,0.1l0,0.2l0,0.4l0.4,0.9l0.1,0.6l-0.1,1.3l0.1,0.2l0.3,0.3
				l0.1,0.4l0.2,0.3l0.1,0.3l0.3,0.5l0.5,0.5l0.1,0l0.1,0l0.1-0.1l0.6-2.4l0.3-0.7l0.6-1.1l0.1-0.4l0.2-0.5l0.3-0.3l0.2-0.3l0-0.2
				l0-0.2l-0.4-0.4l-0.7-0.6l-1-1.1l-0.5-0.9l-0.3-0.8l-0.2-0.7l-0.1-0.8l-0.1-0.6l0-0.9l0.1-0.9l0.3-0.9l0.5-1.1l0.3-0.5l0.7-0.8
				l0.3-0.3l0.2-0.2l0.6-0.4l0.8-0.5l1.1-0.4l0.5-0.1l0.9-0.2l0.7,0l0.9,0.1l0.8,0.1l0.7,0.2l0.7,0.3l0.9,0.5l0.5,0.4l0.5,0.4
				l0.5,0.6l0.4,0.5l0.7,1l0.4,1l0.2,0.9l0.1,0.7l0,0.8l0,0.6l-0.2,0.9l-0.3,0.9l-0.3,0.8l-0.5,0.7l-0.3,0.4l-0.4,0.5l-0.6,0.6
				l-0.4,0.3l-0.1,0.2v0.2l0.3,0.4l0.2,0.3l0.3,0.7l0.2,0.2l0.3,0.3l0.5,0.7l0.5,0.9l0.2,0.4l0,0.3l-0.1,0.4l-0.1,0.3l0,0.2l0,0.1
				l0.1,0l0.1-0.1l0.4-0.3l0.1-0.2l0-0.4l0.1-0.2l0.4-0.3l0.1-0.3l0.4-0.4l0-0.2l-0.2-1.8l0.1-0.5l0.5-0.6l0.1-0.2l0-0.1l-0.1-0.1
				l-0.4,0l-0.2,0l-0.1-0.1l0-0.2l0.1-0.3l0-0.2l-0.1-0.1l-0.3-0.2l-0.4,0l-0.1-0.1l-0.1-0.1l0-0.2l0.2-0.5l0.3-0.3l0.1-0.1l0.4,0
				l0.4-0.2l0.3,0.1l0.2-0.1l0.3,0l0.3,0l0.2-0.1l0.2,0h0.5l0.3,0.1l0.3,0.1l0.2,0.1l0.1,0.2l-0.1,0.2l-0.3,0.4l-0.6,0.5l-0.1,0.1
				l0.1,0.3l0,0.2l-0.1,0.1l-0.3,0.1l0,0l0.3,0.2l0.1,0.2l0,0.2l-0.2,0.3v0.1l0.1,0.1l0.3,0.4l0.1,0.3l0,0.3l-0.2,0.6l0,0.2l0.3,0.4
				l0.2,0.4l0,0.1l-0.1,0l-0.1,0l-0.1,0l-0.1-0.1l-0.1-0.1l-0.2,0l-0.1,0.1l-0.4,0.9l0,0.5l-0.1,0.1l-0.3,0.3l-0.1,0.3l-0.1,0.2
				l-0.3,0.2l-0.2,0.2l-0.6,1l-0.8,0.9l0,0.1l0.5,0.7l0.5,0.7l0.3,0.2l0.4,0.3l0.5,0.2l0.2,0.1l0.2,0l0.2-0.1l0.4-0.2l0.3-0.1l0.8,0
				l0.3-0.1l0.2,0.1l0.1,0.2l0.1,0.1l0.2,0l0.5,0.1l0.5,0.1l0.4,0.2l0.1,0.2l0,0.2l-0.3,0.5l-0.1,0.1l-0.3,0l-0.2,0.1l0,0.1l0.1,0.1
				l0,0.1l-0.1,0.1l-0.2,0l-1.2-0.1l-0.9,0.1l-0.7,0l-0.4,0l-0.4-0.1h-0.2l-0.3,0.1l-0.3,0l-0.3-0.1l-0.4-0.1l-0.3-0.1l-0.4-0.4
				l-0.7-0.4l-0.9-0.6l-0.4-0.4l-0.7-0.8l-0.1,0l-0.1,0.1l-0.2,0.5l-0.1,0.5l0.1,0.6l0.3,1.3l0.2,1.1l0.1,1.5l0,0.9l-0.1,1.4
				l-0.2,1.4l-0.2,1.1l-0.2,1.4l-0.5,2.1l0,0.7l0,0.6l0.1,0.5l0.2,1l0,0.8l0,0.4l0,1.2l-0.1,0.8l0.1,0.7l0,0.8l-0.1,0.9v0.4l0.1,0.4
				l0.2,0.3l0.1,0.1h0.2l0.3-0.1l0.2-0.1l0.2,0l0.3,0.3l0.1,0l0.5-0.1l0.2,0l0.2,0.1l0.2,0.1l0.2,0l0.4-0.1h0.3l0.1,0.1l0.2,0.3
				l0.1,0.1h0.6l0.2,0.1l0.3,0.4l0.2,0.1l0.3,0l0.4,0l0.1,0.1l0.1,0.4l0.1,0.1l0.5,0.1l0.2,0.1l0.1,0.1l-0.1,0.1l0,0.1l0.1,0.2
				l0.1,0.1l0,0.1l-0.5,0.4l-0.9,1l-0.6,0.6l-0.8,0.8l-0.7,0.6l-0.1,0.1l0.1,0.1l0.8,0.4l0.5,0.4l0.4,0.4l0.1,0.2l0,0.2l-0.1,0
				l-0.8,0l-1.2,0.1l-0.1,0.1l0,0.2l0.2,0.4l0,0.1l-0.1,0.1l-0.3,0l-0.7,0.1l-1.1,0.2l-0.9-0.1l-0.6-0.1l-0.3,0l-0.1,0.1l-0.3,0.5
				l-0.4,0.6l-0.3,0.3l-0.6,0.7l-0.1,0.2l0,0.2l0,0.1L1973.5,1165.2z M1975.5,1153.9l-0.1-0.2L1975.5,1153.9L1975.5,1153.9z
				 M1972.4,1152.4L1972.4,1152.4L1972.4,1152.4L1972.4,1152.4L1972.4,1152.4z M1968.8,1129.6l-0.1,0.2v0.2l0.1,0l0.1,0l0.2,0
				l0.2-0.1l0.1-0.2l0.1-0.4l0-0.5l-0.1-0.4l-0.1-0.1l-0.1,0l-0.1,0l-0.1,0.2L1968.8,1129.6z M1976.8,1119.6l0.2,0.3l0.1,0l0.3-0.2
				l0.3-0.3l0.3-0.2l0.4-0.4l0.5-0.7l0.4-0.7l0.3-0.8l0.2-0.9l0.1-0.9l0-0.7l-0.2-1.1l-0.2-0.7l-0.2-0.4l-0.6-0.9l-0.6-0.7l-0.5-0.5
				l-0.6-0.4l-0.8-0.4l-0.9-0.4l-1.1-0.2l-0.9,0l-0.6,0l-0.6,0.1l-0.9,0.3l-0.9,0.4l-0.7,0.4l-0.5,0.4l-0.6,0.5l-0.4,0.5l-0.6,1
				l-0.3,0.7l-0.1,0.4l-0.2,0.8l-0.1,0.9l0.1,0.7l0.1,0.8l0.3,0.9l0.4,0.7l0.4,0.6l0.5,0.6l0.4,0.3l0.5,0.4l0.1,0l0.1-0.1l0.3-0.5
				l0.1-0.3l0-0.9l0.2-0.4l0.2-0.7l0.1-0.5l0.1-0.4l0.1-0.4l0.4-0.6l0.1-0.3l0.1-0.7l0-0.5l0.1-0.3l0-0.3l0-0.4l0.1-0.2l0.3-0.2
				l0.6-0.6l0.4-0.7l0-0.4l0.1-0.2l0.2-0.2l0.2-0.1l0.2,0l0.2,0.1l0.1,0.3l0.1,0.5l0.3,0.6l0.4,0.5l0.4,0.4l0.2,0.3l0.1,0.3l0,0.3
				l-0.1,0.4l0.1,1l0.1,0.3l0.2,0.3l0.3,0.4l0.1,0.4l0.2,1.1l0,0.5l0.2,0.9l0.1,0.6L1976.8,1119.6z M1982.1,1119.6l0.2,0l0.5,0
				l0.4-0.1l0.3-0.2l0.1-0.2l0.1-0.3l0-0.2l-0.2,0l-0.2-0.1l-0.1,0l-0.2,0.1l-0.2,0l-0.2-0.1h-0.1l-0.1,0.1l-0.1,0.1l-0.1,0
				l-0.1-0.1l-0.1,0l-0.2,0.2h-0.1l-0.3-0.2h-0.1l-0.1,0l0,0.1l0,0.2l0.1,0.2l0.3,0.1L1982.1,1119.6z M1963.4,1119.9l0.6,0.1
				l0.6-0.1l0.7-0.2l0.3-0.1l0.2-0.2l0-0.2l0,0l-0.2-0.1l-0.1,0l-0.3,0.1l-0.1,0l-0.1-0.2l-0.1-0.1l-0.1,0l-0.1,0.1l0,0.2l-0.1,0.1
				l-0.1-0.1l-0.1-0.2l-0.1,0l-0.1,0l-0.1,0.2l-0.1,0.1l-0.1,0l-0.1-0.1l-0.1-0.1l-0.2,0.1h-0.2l-0.1,0l-0.1,0.1l-0.2,0.1l0,0.1
				l0,0.1l0.3,0.3L1963.4,1119.9z M1984.1,1118.9l-0.1,0.1l0,0.1l0,0l0.1-0.1L1984.1,1118.9z M1973.6,1116l-0.1-0.1l-0.1,0l0,0.1
				l0,0.1l0,0l0.1,0L1973.6,1116L1973.6,1116z M1975.5,1115.6l-0.1,0.1l0,0.1l0.1,0.1h0.1l0-0.1L1975.5,1115.6L1975.5,1115.6z
				 M1972.8,1115.9l-0.2,0l-0.1,0l0,0.1l0,0.1l0.1,0l0.1,0L1972.8,1115.9L1972.8,1115.9z M1971.8,1115.6l-0.1-0.1l0-0.1l0.1-0.1
				l0.2,0l0.1,0.1l0.1,0.1l0.1,0l0,0l-0.1-0.2l0-0.1l0,0l-0.2,0.1l-0.3,0.2l-0.2,0.3l0,0.2l0,0.1l0.1,0l0.2-0.1l0.1-0.1
				L1971.8,1115.6z M1974.9,1115.3l-0.1,0.2l0,0l0,0.1l0.2,0l0.1-0.1l0.1-0.2l0-0.1l-0.1-0.1l-0.3-0.1l0,0.1L1974.9,1115.3z
				 M1974.5,1115l-0.1,0.3l0.1,0.1h0.1l0-0.1v-0.1l0.1-0.2L1974.5,1115L1974.5,1115z M1972.5,1115.1l0.1,0.2l0.1,0.2l0,0l0-0.1v-0.2
				l-0.1-0.1L1972.5,1115.1z M1974.8,1114.2l-0.1,0.3l0,0.1l0.1,0l0.1-0.1l0-0.1l0-0.3l-0.1-0.2l-0.2-0.1l-0.5-0.1l-0.7-0.1
				l-0.5,0.1l-0.4,0.1l-0.1,0.1l0.2,0.1l0.1,0.1v0.2l-0.1,0.1l-0.2,0l-0.1,0l-0.1-0.1l-0.1-0.2l-0.1-0.2h-0.1l-0.1,0.2l-0.1,0.3
				l0.1,0.2l0.2,0l0.6-0.1l0.3-0.1l0.3-0.1l0.4,0.1l0.3,0l0.1,0l0.1-0.2l0.2-0.1l0.2,0l0.1,0L1974.8,1114.2z M1973.3,1113.9l0.1-0.1
				l0.1,0l0.2,0.1l0.1,0.1l0,0.1l-0.2,0.2l-0.1,0l-0.1-0.1l-0.1-0.1L1973.3,1113.9z M1973.8,1113.2l0.6,0.1l0.1,0l0-0.1l0-0.1
				l-0.1-0.1l-0.9-0.1l-0.6,0.1l-0.1,0.1v0.1l0,0.1l0.1,0l0.4-0.1L1973.8,1113.2z M1974.1,1112.5l0.5,0.1l0.2,0l0,0l0,0l-0.5-0.1
				l-0.8,0l-1,0.1l-0.2,0.1v0.1l0.1,0.1h0.1l0.6-0.1L1974.1,1112.5z M1973.3,1111.8l0.3,0l0.4,0l0,0l0-0.1l-0.1,0l-0.2-0.1l-0.4,0
				l-0.2,0.1l0,0.1L1973.3,1111.8L1973.3,1111.8z"/>
			<path class="st4" d="M1974.8,1153l-0.2-0.3l-0.7-1.1l-0.1-0.4l-0.1-0.3l0-0.2l-0.2-0.7l-0.1-0.1l0-0.3l-0.1-0.5l-0.2-0.4
				l-0.3-1.6l-0.1-1l-0.1-0.6v-0.2l0,0l0.1,0.2l0.2,0.5l0,0.3l0.1,0.2l0,0.3l0.1,0.6l0.3,1.3l0.3,0.9l0.4,1l0.6,1.1l0.4,0.7l0.4,0.8
				l0,0.1l-0.2,0l-0.1,0l-0.1,0l0-0.2L1974.8,1153z M1971.9,1151.7l-0.3-0.8l-0.2-0.9l-0.1-0.5l-0.3-1.2l-0.1-0.8l0-0.7v-0.3
				l0.1-0.6l0-0.3l0-0.2l0,0l0.1,0.1l0.3,1.4l0.3,2.3l0.1,0.9l0.2,0.7l0.2,0.9l0,0.2l0,0.1l0,0l-0.1-0.2L1971.9,1151.7z
				 M1975.7,1147l-0.4-0.2l-0.4-0.2l-0.4-0.4l-0.5-0.6l-0.4-0.9l-0.2-0.8l-0.1-1l-0.1-1.1l0.1-0.1h0.1l0.1,0.1l0,0.5l0.1,0.8l0,0.7
				l0.2,0.7l0.3,0.8l0.3,0.5l0.5,0.5l0.2,0.2l0.4,0.3l0.4,0.2l0.2,0.1l0,0l0,0.1l-0.1,0.1l-0.1-0.1l0-0.1l0,0L1975.7,1147z
				 M1969.5,1143.7l0.4-0.5l0.7-0.7l0.5-0.5l0.4-0.5l0.6-1l0.6-1.1l0.4-0.9l0.2-0.5l0.5-1.3l0.4-1.3l0.7-2.2l0.8-2l0.4-0.9l0.2-0.6
				l0.4-1l1.3-2.6l0.4-0.6l0.4-0.7l0.1-0.2l0-0.3l-0.2-0.4l-0.3-0.4l-0.3-0.2l-0.4-0.1l-1.1-1l-0.3-0.2l-0.2,0l-0.1,0l-0.1,0.1
				l0,1.1l0,0.3l0,0l0,0l-0.3-1.1l-0.1-0.3l-0.1-0.1l-0.1,0l-0.1,0.2l-0.1,0.6l0,0.4l0,0.3l-0.3,1.3l-0.2,1.4l-0.1,0.8l-0.4,1.6
				l-0.5,1.7l-0.3,1l-0.5,1.4l-0.1,0.3l-0.1,0.3l0,0l0,0l0.1-0.2l0.4-0.9l0.4-1.1l0.2-0.6l0.1-0.3l0-0.2l0.2-0.5l0.2-0.7l0.3-1.1
				l0.2-0.9l0.1-0.4l0.1-0.3l0.1-0.5l0.1-0.5l0.1-0.7l0.1-0.3l0.1-0.6l0.1-0.2l0-0.4l0.2-1.4l0.1-0.2l0.1,0l1,0.5l0.9,0.5l0.6,0.3
				l0.7,0.5l0.4,0.6l0.5,0.8l0.2,0.4v0.2l-0.2,0.3l-1.1,1.9l-0.6,1.4l-0.2,0.5l-0.4,0.8l-0.5,1.2l-0.8,2.8l-0.5,1.4l-0.2,0.4
				l-0.4,1.1l-0.1,0.4l-1.3,2.9l-0.3,0.6l-0.2,0.4l-0.3,0.4l-0.6,0.8l-0.7,0.7l-0.7,0.6l-0.6,0.4l-0.2,0l-0.1,0l-0.1-0.1
				L1969.5,1143.7z M1968.8,1132.1l0.2-0.5l0.8-1.5l0.2-0.7l0.1-0.5l-0.2-1.1l-0.2-0.6l0-0.4l0.1-0.4l0.5-0.7l0.7-0.7l0.8-0.7
				l1.4-0.8l0.9-0.5l0.1-0.1l0.1,0v0.1l-0.1,0.3l-0.4,0.5l-0.4,0.4l-0.6,0.4l-1.2,0.9l-0.9,0.8l-0.3,0.3l-0.1,0.3l0,0.4l0,0.7
				l0.1,0.8l0,0.5l0,0.1l0.1,0.1l0.2,0l0.7-0.4l0.2-0.1h0.1l0,0l-0.1,0.3l-0.5,0.6l-0.4,0.3l-0.4,0.3l-0.4,0.4l-0.3,0.5l-0.6,1.2
				l0,0l0,0l0-0.2L1968.8,1132.1z M1977,1125.8l0-0.5l0-0.4l0-0.1l0,0l0.1,0.2l0,0.6l-0.1,0.5l-0.1,0.2l0-0.2L1977,1125.8z"/>
			<path class="st4" d="M1973.4,1164.1l-0.7-0.4l-0.4-0.3l-0.3-0.4l-0.2-0.4l0-0.4l0.1-0.2l0.2-0.4l0.4-0.3l0.6-0.1l0.4,0l0.5,0
				l0.8,0.3l0.4,0.2l0.2,0.3l0.1,0.3l0,0.3l-0.1,0.5l-0.2,0.3l-0.3,0.3l-0.9,0.7l-0.2,0l-0.2-0.1L1973.4,1164.1z M1977.7,1162.4
				l-0.7-0.2l-0.5-0.3l-0.4-0.3l-0.2-0.2l0-0.1l0-0.1l0.2-0.1l0.8-0.2l0.3,0l0.6,0.1l0.5,0.2l0.7,0.4l0.3,0.2l0.1,0.1l0,0.1
				l-0.1,0.1l-0.9,0.3L1977.7,1162.4z M1968.8,1162l-0.3,0l-0.6-0.1l-0.1-0.1l0-0.1l0.2-0.2l0.4-0.2l0.6-0.2l0.7-0.2l0.3,0l0.9,0.2
				l0.4,0.1l0.1,0.1l0,0.2l-0.4,0.3l-0.6,0.3l-0.6,0.1l-0.7,0.1L1968.8,1162z M1980,1160.9l-0.6-0.1l-0.2-0.1l-0.1-0.1l0-0.1l0-0.1
				l0.1-0.1l0.4,0l0.7,0.1l0.5,0.2l0.1,0.1l0,0.1v0.1l-0.1,0.1l-0.6,0L1980,1160.9z M1973.7,1160.5l-0.4-0.1l-0.4-0.3l-0.4-0.4
				l-0.3-0.7l-0.2-0.8v-0.7l0.1-0.3l0.1-0.6l0.3-0.5l0.7-0.9l0.6-0.6l0.2-0.1l0.2,0l0.2,0.1l0.8,0.9l0.5,0.8l0.3,1l0.1,0.6l-0.1,0.8
				l-0.1,0.4l-0.2,0.5l-0.4,0.5l-0.3,0.3l-0.3,0.2l-0.7,0.1L1973.7,1160.5z M1967.7,1160.5l-0.3,0l-1.2-0.3l-0.1-0.1l0-0.1l0.1-0.1
				l0.4-0.2l0.5-0.1l0.3,0l0.5,0.2l0.8,0.4l0,0.1l0,0.1l-0.1,0.1l-0.4,0.1L1967.7,1160.5z M1976.1,1159.9l0.3-0.8l0.2-0.9v-0.8
				l0.2-0.5l0.3-0.5l0.3-0.3l0.7-0.6l0.6-0.3l0.3-0.1l0.2,0l0.1,0.1l0,0.2l-0.3,0.7l-0.2,0.9l-0.2,0.7l-0.4,1l-0.4,0.6l-0.4,0.4
				l-0.5,0.4l-0.5,0.2l-0.2,0l-0.1,0l0-0.1L1976.1,1159.9z M1978,1159.6l0.3-0.5l0.3-0.7l0.3-1l0.2-0.4l0.4-0.5l0.8-0.5l0.7-0.2
				l0.2,0l0.1,0l0,0.1l0,0.2l-0.4,0.6l-0.9,1.6l-0.5,0.7l-0.7,0.6l-0.7,0.5l-0.2,0.1l-0.1,0l0,0L1978,1159.6z M1971.5,1159.9
				l-0.4-0.3l-0.3-0.4l-0.6-0.9l-0.3-0.7l-0.3-1l-0.2-0.6l-0.3-0.8l0-0.1l0.1-0.1l0.4,0l0.5,0.1l0.9,0.4l0.3,0.2l0.3,0.4l0.1,0.2
				l-0.1,0.8l0,0.7l0,0.4l0.1,0.7l0.3,0.9l0,0.1l-0.1,0l-0.2,0L1971.5,1159.9z M1969.9,1159.9l-0.4-0.2l-0.2-0.2l-0.4-0.3l-0.2-0.2
				l-0.5-0.8l-0.4-0.8l-0.4-1.1l-0.2-0.5l0-0.2l0.1-0.1l0.3,0l0.6,0.3l0.4,0.2l0.2,0.2l0.2,0.5l0.2,0.3l0,0.2l0,0.3l0.6,1.3l0.4,0.7
				l0.2,0.2l0,0.1l0,0.1l-0.2,0L1969.9,1159.9z M1980.4,1158.4l0.8-1.4l0.2-0.3l0.4-0.3l0.3-0.1l0.5-0.2h0.3l0.2,0.1l0,0.1l0,0.1
				l-0.4,0.4l-1.2,1.3l-0.7,0.6l-0.3,0.2l-0.1,0l0-0.1L1980.4,1158.4z M1967.3,1158.4l-0.4-0.4l-0.6-0.7l-0.3-0.7l-0.3-0.6l0-0.1
				l0-0.1l0.2-0.1l0.6,0.2l0.3,0.2l0.2,0.2l0.4,1.2l0.4,0.9l0,0.1l0,0.1l-0.1,0L1967.3,1158.4z M1976.1,1156l-0.1-0.3l0-0.2l0.2-0.1
				l0.3-0.1l0.2,0l0.1,0.1l0.1,0.2l0,0.2l-0.3,0.5l-0.2,0.1l-0.1,0l-0.1-0.2L1976.1,1156z M1979.5,1155.5l0.2-0.3l0.2-0.1l0.2,0
				l0.1,0.1l0.1,0.3l0,0.2l-0.2,0.1l-0.7,0.3h-0.1l0-0.1l0-0.2L1979.5,1155.5z M1982,1155.4l-0.1-0.1l-0.2-0.1l-0.6,0h-0.3l-0.1-0.1
				l-0.1-0.4l-0.1-0.1l-0.1-0.1l-0.7,0l-0.1-0.1l-0.1-0.3l-0.1-0.1l-0.1,0l-0.5,0.2l-0.2,0l-0.3-0.2l-0.4,0.1l-0.3,0.1l-0.1-0.1
				l-0.3-0.3l0-0.1l0,0l0.3,0.1l0.1-0.1l0.4-0.3l0.2,0l0.1,0.1l0.2,0.4l0.1,0.1l0.2,0l0.5-0.3l0.2,0l0.1,0l0.1,0.1l0.1,0.3l0.1,0.1
				l0.2-0.1l0.3-0.1l0.2,0l0.1,0l0.1,0.1l0.1,0.3l0.1,0.1l0.5-0.1l0.3,0l0.1,0.1l0,0.3l0.1,0.1l0.2,0.1l0.6,0l0.1,0l0.1,0.1l0,0.2
				l0.1,0.1l0.3,0.1l0,0l-1.1,0.3h-0.1l-0.1,0l0-0.1L1982,1155.4z M1971.6,1155.5l-0.2-0.2l0-0.2l0.2-0.2l0.1-0.1l0.2,0l0.3,0.2
				l0.1,0.2l0,0.1l-0.1,0.2l-0.1,0.1l-0.1,0L1971.6,1155.5z M1977.1,1155.1l-0.2-0.3l0-0.1l0,0l0.3,0.1l0.2-0.1l0.2-0.1l0.1,0
				l0.2,0.2l0.1,0.1l0.6-0.2h0.1l0.1,0v0.1l-0.1,0.1l-0.8,0.3l-0.6,0.3l-0.2,0l-0.1-0.1L1977.1,1155.1z M1966.5,1154.9l-0.2,0.1
				l0,0.1l0,0.3l0,0.1l-0.2,0l-0.8-0.2l-0.1-0.1l0-0.1l0.1,0l0.3-0.1l0.3-0.3l0.1-0.1l0.3,0.1l0.2,0l0.3-0.3l0.1-0.1l0.4,0.1l0.2,0
				l0.2-0.2l0.1-0.1l0.2,0l0.3,0.2l0.2,0l0.2-0.1l0.3-0.4l0.1-0.1l0.5,0.1l0.3-0.1l0.1,0l0,0l0,0.1l0,0.1l-0.3,0.1l-0.3,0.3
				l-0.3,0.2l-0.2,0l-0.2-0.1l-0.4-0.1l-0.4,0l-0.1,0.1l-0.3,0.4l-0.2,0.1h-0.3L1966.5,1154.9z M1968.2,1154.9l0.1,0.1l0,0.1l0,0.1
				h-0.1l-0.1-0.1l0,0L1968.2,1154.9z M1969.9,1154.5l0.2,0l0.1,0.1l0,0.1l-0.2,0l-0.1,0l-0.1,0l0-0.1L1969.9,1154.5z"/>
			<path class="st4" d="M1967.7,1128.2l-0.3-0.1l0-0.1v-0.1l0.1,0h0.2l0.7,0.2l0,0.1v0l-0.2,0l-0.3,0L1967.7,1128.2z M1968,1127.6
				l-0.3-0.1l-0.1-0.1l0-0.1l0,0h0.2l0.8,0.3l0,0l0,0l-0.2,0L1968,1127.6z M1968,1127.1l-0.4-0.2l-0.1-0.1l0-0.1l0.2,0l0.9,0.4l0,0
				l0,0l-0.3,0L1968,1127.1z M1969.1,1126.1l-0.1,0.4l-0.1,0.1l-0.2,0l-0.6-0.1l-0.3-0.2l-0.2-0.2l0-0.2l0.2-0.9l0.2-0.6l0.2-0.5
				l0.3-0.6l0.3-0.3l0.5-0.4l0.7-0.4l0.3-0.1l0.1,0l0,0.1l0,0.4l0.1,0.5l0.2,0.5l0.1,0.3l0,0.2l-0.9,0.9l-0.1,0.1l-0.1,0l-0.1,0
				l-0.1-0.2l-0.1,0l-0.1,0l-0.1,0.2l-0.1,0.3L1969.1,1126.1z"/>
			<path class="st4" d="M1964.1,1137.1l0.2-0.3l0.1,0l0,0l0,0.3l-0.2,0.4l-0.1,0.1l-0.1,0v-0.1L1964.1,1137.1z M1963.4,1136.9
				l-0.1,0.3l-0.1,0.2l-0.1,0l0,0v-0.1l0.1-0.2l0.2-0.6l0-0.5l0.1-0.2l0.4-0.3v-0.1l0,0l-0.2,0l-0.3,0.1l-0.1,0.1l0,0.2l-0.1,0.3
				l-0.1,0.1l-0.1,0l0-0.1l0-0.1l0.1-0.3l0.3-1l0.2-0.4l0.3-0.3l0.4-0.3l0.3,0l0.3,0.1l0.3,0.2l0.1,0.1l0,0.3l-0.1,0.7l0,0.5l0,0.4
				l-0.1,0.2l-0.2,0.1l-0.5,0.1l-0.5,0l-0.2,0l-0.1,0.1L1963.4,1136.9z M1964.8,1136.8l0.1-0.1l0.1,0.1l0,0.3l-0.1,0.1l-0.1,0.1
				l-0.1,0l0,0L1964.8,1136.8z M1983.5,1132.6l-0.6-0.1l-0.2-0.1l-0.1-0.1l0-0.2l0-0.3l0.2-0.3l0.1-0.1l0.5-0.1l0.2-0.1l0.2-0.2
				l0.3-0.2l0.2-0.1l1-0.1l0.1,0l0,0.1l0,0.1l-0.2,0.1l-0.3,0.1l-0.1,0.1l-0.3,0.6l-0.1,0.1l0,0.1l0.1,0.1h0.1l0.2-0.2l0.2-0.3
				l0.1-0.1l0.4-0.1l0,0l0.1,0.4l-0.2,0.2l-0.2,0.3l-0.2,0.1l-0.8,0.2H1983.5z M1985.6,1132.4L1985.6,1132.4l0-0.1l0.1-0.1l0.2,0
				l0.2,0.1l0.2,0.1l0,0.1l-0.1,0l-0.3,0L1985.6,1132.4z M1965.6,1132.4l-0.3-0.1l-0.1-0.1v-0.2l0.4-1.1l0.4-0.7l0.7-1l0.2-0.5
				l0.1-0.1h0.3l1,0.2l0.1,0.1l0,0.2l-0.2,0.7l-0.4,0.8l-0.4,0.6l-0.5,0.7l-0.7,0.7l-0.3,0.2l-0.2,0L1965.6,1132.4z M1986.2,1131.9
				l-0.4,0l-0.1,0v0l0.2-0.1l0.6,0.1l0.2,0.1l0.1,0v0l-0.2,0l-0.2-0.1L1986.2,1131.9z M1980.1,1131.3l-0.6-0.4l-0.5-0.4l-0.3-0.4
				l-0.3-0.5l-0.1-0.5l0.1-0.3l0.4-1.1l0.2-0.3l0.1-0.1l0.2,0l0.2,0.2l0.5,1.4l0.2,0.3l1.1,1.2l0.1,0.2l-0.1,0.1l-0.3,0.4l-0.2,0.4
				l-0.1,0.1l-0.2-0.1L1980.1,1131.3z M1965.9,1128.7l-0.6-0.8l-0.4-0.8l0-0.2l0.1-0.1l0.5-0.3l0.2,0l0.1,0.1l0.4,0.5l0.5,0.6
				l0.1,0.3l-0.1,0.6l-0.2,0.3l-0.1,0.1l-0.2,0l-0.2-0.1L1965.9,1128.7z M1979.9,1127.7l-0.2-0.7l0-0.2l0.1-0.2l0.4-0.4l0.4-0.2
				l0.2,0l0.2,0.1l0.5,0.4l0,0.1l-0.1,0.2l-0.4,0.6l-0.4,0.4l-0.4,0.3l-0.2,0.1l-0.1,0l-0.1-0.1L1979.9,1127.7z M1963.7,1125.3
				l-0.1-0.2l-0.1-0.3l0.1-0.3l0-0.1l0.1,0l0.1,0l0.1,0l0.1-0.1l0.3-0.8l0-0.3l-0.1-0.3l0-0.2l0.1-0.1l0.1,0l0.1,0l0.1,0.1l0.2,0.5
				l0.1,0.4l0.1,0.4v0.9l-0.1,0.2l-0.3,0.2l-0.1,0.1l-0.2,0L1963.7,1125.3z M1982.2,1124.8l-0.1-0.1l0-0.2l0.1-0.7l-0.2-1.4l0-0.3
				l0.1-0.3h0l0,0.3l0,0.1l0.1,0l0.1-0.1l0.2-0.3l0.1,0l0.1,0l0,0.1l0,0.2l-0.2,0.4v0.3l0.3,0.6l0.1,0.4l0,0.2l0.1,0.1l0.1,0
				l0.2-0.1l0,0l0.1,0.2l-0.1,0.4l-0.2,0.4l-0.2,0.3l-0.2,0l-0.3,0L1982.2,1124.8z M1971,1123.1l-0.1-0.5l0-0.2l0,0l0.5,0.8l0.1,0.2
				l0,0.1l-0.1,0.1l-0.1,0.1l-0.1,0l-0.1-0.1L1971,1123.1z M1972,1123l-0.2-0.4l-0.1-0.4l0.1-0.2l0.2-0.4l0.1-0.2l0.1,0l0.1,0
				l0.4,0.2l0.5,0.1l0.5,0l0.3-0.1l0.3-0.1l0.1,0l0.1,0.1l0,0.2l-0.1,0.3l-0.5,0.5l-0.6,0.4l-0.6,0.3l-0.3,0.1l-0.2,0l-0.1-0.1
				L1972,1123z M1963.8,1122.9l0.1,0.1l0,0.1l0,0.1l-0.1,0.1l-0.1,0l-0.1,0l-0.1-0.1l0-0.2L1963.8,1122.9z M1964.5,1122.4
				L1964.5,1122.4l0.1,0l0.1,0.3v0.1l0,0.1l-0.1-0.1L1964.5,1122.4z M1983.1,1121.8L1983.1,1121.8l0,0.3l-0.1,0.1l-0.1,0l-0.1,0
				l0-0.2L1983.1,1121.8z"/>
			<path class="st4" d="M1971.2,1120.4l-0.1,0.3l0.1,0.1l0.1,0l0.1-0.1l0-0.2l-0.1-0.1l-0.1-0.1L1971.2,1120.4z"/>
			<path class="st4" d="M1971.3,1117.1l-0.1-0.1l-0.1,0l-0.1,0.1l0,0.1l0,0.1L1971.3,1117.1L1971.3,1117.1L1971.3,1117.1z"/>
			<path class="st4" d="M1973.7,1115.3l-0.1-0.1l-0.1,0l-0.1,0.1l0,0.1l0,0.1L1973.7,1115.3L1973.7,1115.3L1973.7,1115.3z"/>
			<path class="st4" d="M1973.8,1115.4l-0.1-0.1l-0.1,0l0,0.1l0,0.1l0,0.1L1973.8,1115.4L1973.8,1115.4L1973.8,1115.4z"/>
			<path class="st4" d="M1975.7,1117L1975.7,1117L1975.7,1117L1975.7,1117L1975.7,1117z"/>
			<path class="st4" d="M1974,1121l-0.3,0.1l-0.4,0.1l-0.4-0.1l-0.4-0.3l-0.3-0.3l-0.2-0.3l-0.3-0.5l-0.1-0.1l-0.2,0l-0.2,0
				l-0.1-0.1l0-0.2l0-0.1l0.1,0l0.1-0.1l0-0.1l0-0.2l-0.1-0.3l-0.1-0.1l-0.2,0l-0.2-0.2l-0.1-0.3l0-0.1l0.1,0l0.3,0l0.1,0.1l0.1,0
				l0.1,0l0.3-0.4l0.4-0.7l0.2-0.2l0.3-0.2l0.4-0.1l0.4,0.1h0.4l0.3-0.1l0.2,0l0.4,0.2l0.2,0.2l0.2,0.4l0,0.2l-0.1,0l-0.5,0
				l-0.4,0.1l0,0.1l0,0.1l0,0.1l0.2,0.1l0.5,0l0.2,0.1l0.2,0.1l0.2,0l0.1,0.1l0.1,0.4l0.1,0.3l0.1,0.2l0,0.4l-0.1,0.1l-0.1,0.1
				l-0.2-0.1l-0.1,0l-0.1,0.2l-0.2,0.4l-0.5,0.6L1974,1121z"/>
			<path class="st4" d="M1975.3,1120.2l0,0.3l0.1,0.1l0.1,0l0.1,0l0.1-0.2l0-0.1l-0.1-0.1l-0.1-0.1l-0.1,0L1975.3,1120.2z"/>
			<path class="st4" d="M1975.9,1118l-0.1,0.2l0.1,0.1l0.1,0l0.1,0l0-0.1l0-0.2L1975.9,1118L1975.9,1118z"/>
			<path class="st5" d="M1973,1120.2l0.2,0.2l0.2,0l0.3-0.1l0.2-0.2l0-0.2l0-0.1l-0.2-0.1l-0.1-0.1v-0.1l0.1-0.2l0-0.1l-0.1,0
				l-0.2,0l-0.3-0.1l-0.2,0l0,0.1l0.1,0.1l0.2,0.2l0,0l-0.3,0.1l-0.1,0.2l0,0.1L1973,1120.2z"/>
			<path class="st5" d="M1974.1,1118.4l0.2,0.2l0.2,0.1l0.2,0l0.3-0.2l0.2-0.1l0-0.1l-0.2-0.2l-0.2-0.1l-0.3,0l-0.3,0.1l-0.2,0.2
				l0,0.1L1974.1,1118.4z"/>
			<path class="st5" d="M1972.9,1118.4l0.3,0l0.1,0.2l0.1,0l0-0.2l-0.1-0.2l-0.3-0.2v0l0.1,0l0.1-0.1v-0.1l0-0.1l-0.3-0.2l-0.3-0.1
				l-0.4,0.1l-0.2,0.1l-0.1,0.1l0,0.1l0,0.1l0.1,0l0.4-0.1l0.1,0l0,0l-0.3,0.1l-0.2,0.2v0.2l0.2,0.1l0.1,0.2l0.3,0.1l0.2,0
				L1972.9,1118.4z"/>
			<path class="st5" d="M1973.7,1117.2l-0.2,0.1l0,0.1l0,0.1l0.1,0.1h0.1l0.1-0.1v-0.1L1973.7,1117.2z"/>
			<path class="st4" d="M1973.8,1115.1l-0.1-0.1l-0.1,0l0,0.1l0,0.1l0,0.1L1973.8,1115.1L1973.8,1115.1L1973.8,1115.1z"/>
			<path class="st4" d="M1973.5,1115l-0.1-0.1l-0.1,0l0,0.1l0,0.1l0,0.1L1973.5,1115L1973.5,1115L1973.5,1115z"/>
			<path class="st4" d="M1973.4,1115.3l-0.1-0.1l-0.1,0l0,0.1l0,0.1l0,0.1L1973.4,1115.3L1973.4,1115.3L1973.4,1115.3z"/>
			<path class="st4" d="M1973.6,1115.5l-0.1-0.1l-0.1,0l0,0.1l0,0.1l0,0.1L1973.6,1115.5L1973.6,1115.5L1973.6,1115.5z"/>
			<path class="st4" d="M1971.7,1116.7l-0.1-0.1l-0.1,0l-0.1,0.1l0,0.1l0,0.1L1971.7,1116.7L1971.7,1116.7L1971.7,1116.7z"/>
			<path class="st4" d="M1971.6,1116.6l-0.1-0.1l-0.1,0l-0.1,0.1l0,0.1l0,0.1L1971.6,1116.6L1971.6,1116.6L1971.6,1116.6z"/>
			<path class="st4" d="M1972,1116.2l-0.1-0.1l-0.1,0l-0.1,0.1l0,0.1l0,0.1L1972,1116.2L1972,1116.2L1972,1116.2z"/>
			<path class="st4" d="M1974.5,1115.9l-0.1-0.1l-0.1,0l-0.1,0.1l0,0.1l0,0.1L1974.5,1115.9L1974.5,1115.9L1974.5,1115.9z"/>
			<path class="st4" d="M1975.5,1116.6l-0.1-0.1l-0.1,0l-0.1,0.1l0,0.1l0,0.1L1975.5,1116.6L1975.5,1116.6L1975.5,1116.6z"/>
			<path class="st4" d="M1975.1,1116.2l-0.1-0.1l-0.1,0l-0.1,0.1l0,0.1l0,0.1L1975.1,1116.2L1975.1,1116.2L1975.1,1116.2z"/>
		</g>
		<path class="st6" d="M2133,1126.6h165.3v5.4H2133V1126.6z"/>
		<path class="st4" d="M2167.3,1168.1l-8.1,0l-0.7-0.2l-0.3-0.2l-0.2-0.8l0.1-4.7l0.3-0.8l0.8-0.3l1.2-0.1l0.3-0.2l0.2-0.3l0.2-18.3
			l-0.3-0.8l-0.3-0.2l-1.6-0.3l-0.3-0.3l-0.3-0.8l0.1-4.7l0.3-0.7l0.7-0.3l11.1,0l5.3,0.4l3,0.9l1.3,0.8l2.7,2.4l1.2,1.7l1.1,2.3
			l0.8,2.5l0.6,3.3l0.1,3l-0.1,3l-0.8,3.7l-1.1,2.8l-1.3,2.1l-2.5,2.6l-2,1.4l-2.2,0.6l-3.4,0.6h-4.3L2167.3,1168.1z M2256.1,1149
			l-0.1,1.3l0.2,0.3l0.4,0.1l1.9,0l1.5-0.1l0.2-0.2l0.1-0.4l0-0.4l-1.9-7.3l-0.2-0.2l-0.2,0.1l-0.2,0.3L2256.1,1149z M2168.5,1157.7
			l0,2.3l0.2,0.8l0.3,0.2l1.1,0.3l3-0.5l1.8-0.8l1.3-1l1-1.4l0.8-2l0.4-2.1l0.1-3.5l-0.3-2.6l-0.8-2.4l-0.9-1.4l-1.2-1.1l-1.4-0.7
			l-1.5-0.5l-3.1-0.3l-0.4,0.2l-0.2,0.3l-0.1,0.8L2168.5,1157.7z M2206.2,1168.2l-11.9,0l-5.4,0l-0.4-0.1l-0.3-0.3l-0.2-0.9v-4.7
			l0.1-0.4l0.2-0.3l0.8-0.2l1.2-0.1l0.3-0.3l0.2-0.8v-13.2l-0.1-5l-0.2-0.3l-0.7-0.2l-0.8-0.1l-0.4-0.1l-0.3-0.2l-0.2-0.8l0-4.8
			l0.1-0.4l0.2-0.3l0.7-0.3l19.1,0l3.5,0.1l0.4,0.1l0.3,0.2l0.3,0.8l-0.1,7.2l-0.1,3.4l-0.1,0.4l-0.3,0.3l-0.8,0.2l-3.1-0.1
			l-0.6-0.4l-1.6-4.4l-0.3-0.3l-0.8-0.2l-5.8,0l-0.4,0.1l-0.3,0.2l-0.2,0.8l0,3.4l0.1,0.4l0.3,0.3l0.8,0.1l3.1,0l0.4,0.1l0.3,0.3
			l0.2,0.4l0,5.1l-0.2,1.3l-0.2,0.3l-0.4,0.2l-3.8,0.2l-0.3,0.2l-0.2,0.3l-0.1,1.3l0,4.3l0.1,0.4l0.3,0.3l0.7,0.2l5.9-0.1l0.3-0.1
			l0.3-0.3l0.5-1.6l1-3.7l0.2-0.4l0.3-0.2l0.8-0.1l3.1,0.1l0.3,0.2l0.2,0.3l0.1,1.3l-0.1,10.8l-0.1,0.4l-0.2,0.3l-0.7,0.2
			L2206.2,1168.2z M2234.7,1167.8l-0.6-0.6l-8.5-17.1l-0.2-0.2l-0.2,0l-0.2,0.7l0,7.7l-0.1,1.7l0.1,0.4l0.2,0.3l0.7,0.3l1.2,0
			l0.4,0.1l0.3,0.3l0.2,0.8l-0.1,5.1l-0.2,0.3l-0.7,0.3l-10.4,0.2l-0.8-0.1l-0.4-0.2l-0.2-0.3l-0.1-0.8v-4.7l0.2-0.4l0.3-0.3
			l0.8-0.2l0.8,0l0.3-0.1l0.3-0.3l0.2-0.8l0.1-14.8l-0.1-3.4l-0.2-0.3l-0.3-0.2l-1.3-0.1l-0.4-0.1l-0.3-0.3l-0.2-0.8l0-4.7l0.3-0.7
			l0.3-0.2l1.9-0.1l1.9,0l1.9-0.1l2.7,0l0.7,0.3l0.7,1l7.6,15.6l0.3,0.2l0.2-0.2l0-1.3l-0.1-3.4l0-4l-0.1-0.5l-0.2-0.4l-0.3-0.2
			l-1.9-0.2l-0.2-0.3l-0.2-0.8l0-4.8l0.4-0.8l0.8-0.3h10.6l0.8,0.2l0.3,0.3l0.2,0.8l0,4.3l-0.2,0.9l-0.3,0.3l-1.5,0.3l-0.3,0.2
			l-0.3,0.8l-0.1,5.5l-0.2,19.5l-0.1,0.4l-0.2,0.3l-0.7,0.2l-3.1,0.1L2234.7,1167.8z M2266.6,1168.1h-3.8l-1.5-0.1l-0.4-0.1
			l-0.3-0.2l-0.3-0.8l0-4.3l0.1-0.9l0.2-0.3l0.4-0.2l0.8-0.1l0.4-0.2l0.2-0.3l0-0.9l-0.5-2.1l-0.2-0.3l-0.3-0.2l-2.7-0.2l-3.5,0
			l-0.4,0.1l-0.3,0.2l-0.4,1.6l-0.3,1.3l0,0.4l0.2,0.3l1.2,0.4l0.3,0.2l0.2,0.8l0.1,3l-0.1,1.8l-0.1,0.4l-0.3,0.3l-0.3,0.2l-7.2,0.2
			l-3.4-0.1l-0.4-0.1l-0.3-0.3l-0.2-0.8l-0.1-4.7l0.1-0.4l0.3-0.3l0.8-0.3l0.8-0.1l0.3-0.2l0.3-0.3l1.5-5.6l3.2-13l0-0.4l-0.2-0.3
			l-0.7-0.2l-0.8-0.1l-0.3-0.2l-0.3-0.8l0-4.7l0.1-0.4l0.2-0.3l0.3-0.3l1.2-0.2l7.6,0.1l9.6,0l0.4,0.1l0.3,0.3l0.2,1.3l0,2.1
			l-0.1,2.2l-0.1,0.4l-0.2,0.3l-0.8,0.3l-0.8,0.2l-0.2,0.3l-0.1,0.4l0.5,2.5l4,16l0.2,0.3l0.3,0.2l1.2,0.2l0.4,0.2l0.2,0.3l0.1,0.9
			l-0.1,4.4l-0.1,0.4l-0.2,0.3l-0.3,0.2l-3,0.2L2266.6,1168.1z"/>
		<path class="st4" d="M2260.4,1124.9l-12.3,0l-0.8-0.1l-0.3-0.2l-0.3-0.7l0-1.4l0.3-0.6l0.7-0.3l2.3-0.2l0.3-0.2l0.2-0.3l0.2-4.2
			l-0.1-11l-0.1-2.1l-0.2-0.3l-0.7-0.2l-7.8-0.1l-0.8,0.1l-0.3,0.2l-0.2,0.7l-0.1,14.1l0,2.5l0.1,0.3l0.3,0.3l0.8,0.2l2.4,0.1
			l0.4,0.2l0.2,0.3l0.2,1l0,1.1l-0.1,0.3l-0.3,0.2l-0.8,0.2l-15.5,0h-2.4l-0.4-0.1l-0.3-0.2l-0.3-0.6l0-1.5l0.3-0.6l0.7-0.3l2.3,0
			l0.3-0.1l0.3-0.2l0.2-0.7l0.1-5.9l-0.1-1.4l-0.2-0.3l-0.7-0.3l-7.8,0.1l-0.8,0.2l-0.3,0.3l-0.2,0.7l-0.1,2.8l-0.2,1l-0.5,0.9
			l-0.9,0.7l-1.2,0.3l-1.6,0.1l-2.7-0.5l-2.5-0.9l-2.3-1.3l-1.4-1.1l-1.1-1.4l-0.7-1.6l-0.1-1l0.5-1.7l0.9-1.2l0.9-0.7l1.4-0.5
			l2.3-0.3l12.8-0.1l5.8-0.2l0.3-0.2l0.3-0.6l0-2.2l-0.2-0.7l-0.3-0.2l-1.1-0.1h-12.4l-14.1,0l-0.4,0.1l-0.3,0.2l-0.2,0.3l-0.3,5.6
			l-0.2,0.3l-0.3,0.2l-0.8,0.1l-19.4-0.1l-3.4,0l-1.1,0.2l-1,0.5l-0.8,0.9l-0.4,1l0.1,1.1l0.5,0.9l0.9,0.7l1.8,0.7l2.7,0.4l2.3,0
			l1.9-0.3l1.9-0.6l1.6-0.9l2.1-2l0.7-0.3l1.6-0.1l8.2,0.2l0.4,0.1l0.3,0.2l0.2,0.3l0.1,1.1l0.1,6.9l0.1,0.3l0.2,0.3l0.7,0.2l2,0.1
			l0.4,0.1l0.3,0.2l0.3,0.7l0,1.5l-0.1,0.4l-0.3,0.3l-0.3,0.1l-7.7,0.1l-3.9,0l-6.2-0.2l-0.4-0.1l-0.3-0.2l-0.2-0.7l0-1.5l0.2-0.3
			l0.3-0.2l0.8-0.2l1.6-0.1l0.4-0.1l0.3-0.2l0.2-0.7l0-1.1l-0.2-0.3l-0.3-0.2l-0.8,0l-4.9,1l-4.2,0.6l-3.9,0.3l-3.1,0l-3.8-0.4
			l-2.2-0.6l-2.1-1l-1.5-1.1l-1.2-1.4l-0.5-1.3l-0.3-1.4l0-1.4l0.4-1.7l1.1-1.8l1.4-1.3l1.3-0.8l2.2-0.7l2.6-0.4l7.8,0l11.2,0
			l0.8-0.2l0.2-0.3l0.2-0.7l-0.1-0.7l-0.1-0.3l-0.3-0.2l-0.8-0.2l-19.3-0.1l-2.4-0.1l-0.3-0.1l-0.2-0.2l-0.2-0.7l0.1-1.8l0.1-0.3
			l0.2-0.2l0.7-0.2h6.3l8.5,0l8.9,0l0.4-0.1l0.2-0.2l0-0.3l-0.8-0.8l-3.3-2.4l-2.4-1.2l-1.9-0.6l-2.6-0.4l-1.6,0l-2,0.4l-3.3,1.3
			l-0.3-0.1l-0.6-0.5l-3.4-5.8l-0.1-0.7l0.1-0.3l0.6-0.4l2.2-0.8l3-0.6l1.6,0l2.3,0.4l2.4,1l4.5,2.6l13.1,9.4l0.7,0.2l8.1,0.1h15.4
			l17.7,0l10.4,0.1l6.6,0l11,0l0.4,0.1l0.3,0.2l0.3,0.6l0.1,1.4l-0.1,0.7l-0.2,0.3l-0.3,0.2l-1.2,0.2l-3.6,0.1l-0.4,0.1l-0.3,0.2
			l-0.2,0.7v16.2l0.2,0.6l0.3,0.2l0.7,0.1l2.4,0.1l0.7,0.3l0.2,0.3l0.1,1.7l-0.2,0.7l-0.3,0.2l-0.8,0.1L2260.4,1124.9z"/>
	</g>
	<path class="st7" d="M627.3,615.9h98.3v-50.5h-98.3V615.9z"/>
	<path class="st8" d="M592.9,615.9h34.4v-50.5h-34.4V615.9z"/>
	<g transform="matrix(.26672336 0 0 .26672336 226.0612 284.54483)">
		<g>
			<path class="st4" d="M1442.2,1073.2l-0.1,0.3c-0.2,0.5-0.5,1.6-1.1,1.9l-0.1,0v0.9l-0.1,0c-0.8,0.4-1.1,2.5-1.4,3.3l-0.1,0.1
				h-0.3l0,0.2c-0.1,0.5-0.2,1.1-0.3,1.6l0,0.2h-0.3v0.6h-0.3v0.6l-0.1,0l-0.1,0l-0.1,0l0,0l0,0l0,0v0.1c0,0.1,0,0.1-0.1,0.1l-0.1,0
				h-0.1v0.7c0,1.5,0,3.8,0.6,5.2l0,0.1h0.3v0.9h0.3v1.6h0.3v0.9h0.3l0.1,0.1l0.1,0.1l0,0.1l0,0.1l0.1,0.3l0.1,0.3l0.1,0.3l0.1,0.2
				l0,0.1l0,0.1l0,0.1l0.1,0.1v0.6l0.1,0c0.8,0.2,0.6,2.9,1.1,3.1l0.1,0l0,0.2c0,0.6,0.3,2.4,0,2.9l0,0h-0.3v0.6l-0.3,0.3h-0.3
				l-0.3,0.3l0,0.1l0,0.1l0,0.1l0,0.1l0,0.1l0,0.1c-0.1,0.2-0.3,0.3-0.4,0.6l0,0.1l0,0.1h-0.1c-0.3,0-0.6,0.3-0.8,0.3h-0.1l0,0.2
				c-0.3,1.7-4.5,2.3-5.6,2.4h-0.2l0,0l0,0l0,0c-0.2,0.2-0.4,0.2-0.7,0.3l-0.2,0.1l-0.2,0.1l-0.4,0.1l-0.4,0.1l-0.3,0l-0.2,0
				l-0.1,0.1l-0.1,0.1l-0.1,0.1l-0.1,0.1c-1.8,1-4.4,2.1-6.4,2.5l-0.2,0h-0.1v0c-0.2,0.4-1.1,1.1-1.5,1.2l-0.1,0l0,0.1
				c-0.1,0.7-1.5,2-2,2.4l-0.1,0.1v0.1c-0.1,0.6-0.8,0.8-0.9,1.5v0.1l-0.1,0c-0.4,0.1-1.4,0.7-1.5,1.2v0.1h-0.1
				c-1.3,0.1-1.9,1.9-2.5,3l-0.1,0.2h-0.3l0,0.1c-0.2,0.4-0.5,1-0.6,1.5v0.1l-0.1,0c-0.4,0.2-0.6,0.9-1.1,0.9h-0.1l0,0.1
				c-0.7,1.3-2.7,3.3-3.7,4.4v0.6h-0.3v0.6h-0.3l0,0.2c0,0.4-0.1,1.3-0.6,1.4h-0.1v0.9l-0.1,0c-0.5,0.3-0.8,1.7-1.1,1.9l0,0l0,0.1
				c-0.1,0.4-0.2,0.7-0.3,1.1l0,0.1h-0.3l-0.6,1.3h-0.3v0c0,0.3-0.2,0.6-0.5,0.6l-0.1,0l-0.3,1.6h-0.3l0,0c-0.3,0.6,0,2.5,0,3.1
				l0,0.3h0.1l0.1,0c0,0,0.1,0,0.1,0.1v0.1c0,0.1,0,0.1,0.1,0.1l0.1,0h0.1v0.1c0,0.3,0.3,0.8,0.6,0.9l0.1,0v0.6l0.3,0.3h0.6v0.1
				c0,0.4,0.3,0,0.3,0.4v0.1h0.6l0,0l0.1,0.1l0.2,0.1l0.2,0.1l0.2,0.1l0.2,0.1l0.1,0l0.1,0l0.1,0l0.1,0l0.3,0.3v0.3l0.3,0.3
				c1.2,0.8,0.8-0.4,2.1,1.1l0,0.1v0.1h0.6v0.3h0.6v0.3h0.6l0.3,0.3v0.6l1.2,1.3h0.1l0.1,0l0.1,0l0.1,0l0,0c0.1,0.1,0.1,0.1,0.2,0.2
				l0,0.1l0,0.1l0,0.1l0,0.1l0,0.1v0.1l0.3,0.3l0.3,0.3h0.1l0.1,0l0.1,0c0.3,0.2,0.4,0.3,0.7,0.5l0,0h0.6l0.9,0.6v0.3h0
				c0.3,0,0.5,0.2,0.6,0.5l0,0.1h0.6l0.3,0.3v0.3l0.3,0.3h0.6l0.9,0.9v0.6h0.1c0.3,0.1,0.6,0.4,0.9,0.6v0.3h0.3v0.3h0.3l0.3,0.3
				c0.1,2.6,5.6,7.6,7.6,8.7l0.2,0.1l0.2,0.1c3.4,0.9,10,0.7,13.5-0.1l0.2-0.1l0.2-0.1v-0.3l0.1-0.1c0.8-0.3,1.8-0.5,2.7-0.6l0.3,0
				l0-0.1c0.2-0.3,0.8-0.5,0.9-0.8l0-0.1l0.1,0c0.3,0,1.9-0.5,2.1-0.9l0,0h1.5l0.3-0.3v-0.3h0.3v-0.3h0.3l0.3-0.3
				c0-0.3,0.2-0.8,0.4-1.1l0.1-0.2l0.1-0.2c0.1-0.2,0.2-0.4,0.4-0.5l0,0l0,0v-0.6c0.3-0.4,0.5-1.3,0.9-1.8l0.1-0.1h0.3
				c0.3-0.3,0.3-0.8,0.7-1.1l0.1-0.1l0.1-0.1v-0.9h0.1l0.1,0l0,0c0.2-0.1,0.4-0.3,0.4-0.5v-0.1l0.1-0.1l0.1-0.2l0.2-0.3l0.2-0.3
				l0.2-0.3l0.2-0.3l0.1-0.1l0.1-0.1l0-0.1l0-0.1l1.2-1.3h0.1l0.1,0l0.1,0l0.1,0l0.2-0.1l0.2-0.1l0.2-0.1l0.2-0.1l0.1,0l0.1,0l0.1,0
				l0.1,0l0.3-0.3v-0.1l0-0.1l0-0.1l0-0.1l0,0l0-0.1l0,0l0,0c0.3-0.3,0.8-0.3,1-0.7l0-0.1l0-0.1l0-0.1h0.1c0.3,0,1-0.3,1.2-0.6
				l0-0.1h0.6l0.1-0.1l0.1-0.1l0.1,0l0.1,0l0.3-0.1l0.3-0.1c0.2-0.1,0.6-0.1,0.9-0.3l0.1-0.1v-0.3h0.9v-0.3l0.1,0
				c0.2,0,0.7,0.2,0.8-0.2l0-0.1h0.9l0-0.1c0.1-0.3,0.8-0.5,0.9-0.8l0-0.1h0.9v-0.3h1.2v-0.3h0.6v-0.6h0.3v-0.6h0.3v-2.5h-0.3v-0.6
				h-0.3l-0.1-0.1c-0.5-1.4,0-4.5,0-6l0-0.3l0,0c0.3-0.3,0.3-2.6,0.3-2.9v-0.2h-0.3l0-0.1c0.1-0.3,0.2-0.7-0.2-0.8h-0.1l0-0.3
				c0-1.5,0.6-4.6,0-6l-0.1-0.1h-0.3v-0.6h-0.3v-4.4h-0.3l-0.3-1.6l-0.3-0.3h-0.3v-0.3h-0.3l-0.3-0.3v-0.9h-0.1
				c-0.4,0,0-0.3-0.4-0.3l-0.1,0l0-0.1c-0.1-0.3-0.2-0.7-0.3-1l0-0.1h-0.1l-0.1,0l-0.1,0l-0.1,0l-0.2-0.1l-0.1-0.1l-0.1-0.1
				l-0.1-0.1l-0.1-0.1l0,0v-0.6l-0.3-0.3l-0.1,0l-0.1,0c-0.2-0.1-0.6-0.3-0.7-0.5l0-0.1l0-0.1h-0.1c-1.1-0.2-2.4-0.5-3.4-0.9
				l-0.1-0.1v-0.3l-1.2-0.3v-0.1c0-0.4-0.3,0-0.3-0.4v-0.1h-0.9v-0.3h-0.6v-0.3h-0.6v-0.1c0-0.4-0.3,0-0.3-0.4v-0.1h-0.1
				c-0.2,0-1.1-0.3-1.2-0.6v0h-0.9v-0.6h-0.3v-0.6l0.1,0c0.4,0,0-0.3,0.4-0.3h0.1v-0.6l0.3-0.3h0.6l0.3-0.3v-0.3l0.3-0.3h0.6v-0.3
				h0.6l0.3-0.3v-0.3h0.3l0.3-0.3c0-0.1,0.1-0.2,0.1-0.4l0.1-0.1l0.1-0.1c0.1-0.1,0.1-0.2,0.1-0.4l0.3-0.3h0.3v-0.3h0.3l0.3-0.3
				v-0.6l0.1,0c0.4,0,0-0.3,0.4-0.3h0.1v-0.6h0.3v-0.6h0.3v-0.6l0.3-0.3h0.3l0.3-0.3v-0.6h0.3v-0.6h0.1c0.4,0,0-0.3,0.4-0.3l0.1,0
				v-0.6h0.1c0.4,0,0-0.3,0.4-0.3l0.1,0v-0.9h0.3v-0.9h0.3v-0.9h0.3l0-0.1c0.3-0.8,0.2-1.8,0.5-2.6l0-0.1h0.3v-1.3h0.3v-1.3h0.3
				l0-0.1c0.3-1,0-2.7,0.3-3.7l0-0.1h0.3l0-0.1c0.2-0.9-0.3-1.8-0.1-2.7l0-0.1h0.3v-1.3h-0.3v-1.3h-0.3v-0.9h-0.3v-1h-0.3v-0.6h-0.3
				v-0.6l-0.3-0.3l-0.3-0.3l-0.3,0l-0.4,0l-0.5,0l-0.5,0l-0.2,0l-0.2,0c-0.3,0-0.6,0-0.9-0.1l0,0l0,0v-0.3h-1.5v-0.3l0,0
				c-0.4-0.3-2.3,0.3-2.4-0.2v-0.1l-0.1,0c-0.4-0.1-1.8-0.5-2.1-0.9l0,0h-0.6v-0.3l-0.1,0c-0.3,0.1-0.5,0.2-0.5-0.2v-0.1h-0.1
				c-0.3-0.1-0.6-0.2-0.9-0.3l-7.4,0.3l0,0.1c-0.9,1-4.8,1-6.1,1.7L1442.2,1073.2"/>
			<path class="st9" d="M1468.4,1083.5l0.1-0.5l0.1-0.5l0.1-0.5c1.8-7.6-7.5-4.5-11-5.3l-0.6,0l-0.6,0c-3.9,0-10.3-5.5-12.7-1.9
				l-0.1,0.2l-0.1,0.2l-0.1,0.2l-0.1,0.2l-0.1,0.2c-0.5,1.6-0.2,3.4-0.1,5.1v0.8c0,0.7-0.3,2.4-0.8,2.8l-0.1,0l-0.1,0l-0.1,0
				c-1.6-0.3-2.6-3.7-4.4,0l-0.1,0.2l-0.1,0.2l-0.1,0.2l-0.1-0.1c-0.8-1.4-0.3-3.6,1-4.5l0.2-0.1l0-0.8l0-0.8
				c-0.9-11.1,11.8-12.3,19-12.2l0.4,0.1l0.4,0.1c8,1.2,13.8,7,11.4,16.3l-0.1,0.4l-0.1,0.3l-0.2,0c-0.2,0-0.4,0-0.7,0l-0.1,0
				L1468.4,1083.5z M1423.5,1149l-0.4,0.4c-0.8,0.9-1.7,1.7-2.5,2.6l-0.4,0.4l0.2,1.5l0.2,1.5l0.2,1.5c0.4,2.6,0.8,5.1,1.1,7.7
				l0.6,6.8l0.6,6.9c1.3,13.7,2.6,27.5,3.8,41.2l0,0.2l0,0.2l0,0.2c-0.3,1.7,0.2,3.5-0.4,5.1l-0.1,0.2l-0.1,0.2l1.2,0
				c3.1,0.1,6.3,0,9.4,0.1l1.2,0l-3.4-5.4l-0.1-0.1c-0.2-0.3-0.4-0.7-0.4-1.1l0-0.1v-0.1c0.5-7.9,0.7-15.9,1.3-23.8l0.1-1.7l0.1-1.7
				l0.4,0.4c5.3,6.1,5.8,23.8,5.9,31.7l0,1.6l0.7,0c3.4,0.1,6.7-0.1,10.1,0.1l0.7,0l-0.5-0.8c-1-1.5-1.9-2.8-3.3-3.9l-0.3-0.2l0-3.3
				l-0.1-3.3l-0.1-3.3l-0.1-3.3c-0.2-10-0.4-20,0.3-30l0.1-1.7l0.1-1.7l0.1-1.7c0.5-2.1-0.2-4.6,1.3-6.3l0.3-0.4l0.5-0.8
				c1.4-2.4,2.7-4.9,4.3-7.2l0.3-0.4l0.3-0.4l0.3-0.4l0.3-0.4l0.3-0.4c1.5-2,3.4-3.6,5.4-4.8l0.4-0.2l0.4-0.2
				c2.7-1.6,6.2-2.5,8.7-3.9l0.2-0.1l0.1-0.1l0.1-0.1l0.1-0.2l0.1-0.2l0.1-0.2c0.6-1.2,0.6-2.6,0.6-3.9l0-0.6l0-0.7
				c-0.5-6.4-0.1-13.1-0.7-19.5l-0.1-0.5l-0.1-0.4l-0.1-0.4c-1.6-8.6-7.4-8.4-13.6-12.5l-0.7-0.4l-0.6-0.4l-0.6-0.4l-0.1,0.4
				c-0.1,0.7-0.3,1.4-0.4,2.1l-0.1,0.4l0.8,0.4c3.8,1.9,7.7,4.2,11,7.1l0.3,0.3l-2.5,5.7l-0.6,0.5l-3.3-0.2l-0.4-3.4l-1.3,0.1
				l-0.3,2.1l-0.9,0.1l0.2,1.1c-0.2,1.4,0,2.8-0.2,4.2l0,0.3l0.2,0c0.4,0,0.8,0,1.2,0l0.2,0l0.1-0.4c0.2-0.7,0.3-1.4,0.4-2.1
				l0.1-0.4l0.4,0c0.9,0.1,1.8,0,2.7,0.1l0.4,0l-0.1,0.7c-2.1,13-7.3,24.8-13.3,36.1l-0.6,1.2l-0.4,0c-1.1-0.1-2.2-0.1-3.2-0.2
				l-0.4,0l0.1-0.3l0.1-0.3l0.1-0.3c0.8-2.1,3.5-6.2,3.8-8.1l0.1-0.4l0.1-0.4l0.1-0.7c0.2-1.8,0.4-3.7,0.8-5.4l0.1-0.4l0.1-0.4
				l0.1-0.4l0.1-0.4l0.1-0.4l0.1-0.4l0.2-0.4l0.2-0.4l0.2-0.4l0.2-0.4l0.2-0.4l0.7-1.7l-0.3-2.3l0.8-7.6l0.8-1.6l0-0.1l0-0.1l0-0.1
				v-0.1c-0.1-0.9-0.6-1.7-0.7-2.7l-0.1-0.4l0-0.4c-0.1-2.7-0.2-5.5,0.6-8.1l0-0.2v-0.4c0-0.6-0.3-1.1-0.6-1.6l0-0.1l0-0.1
				c-0.3-1.1,0-2.2,0.1-3.3l0-0.3l0-0.3l0-0.3l0-0.2l-0.4,0c-0.8,0.1-1.7,0.2-2.5,0.3l-0.4,0l0.3,1.4c2.9,15.1,0.4,37.5-7.5,50.4
				l-0.1,0.3l-19.5,0.3l-0.3-8.5l0.7,0c3.3-0.2,6.6-0.1,9.9-0.2l0.7,0v-0.2v-1.1v-0.2l-8.9,0.2l0-0.2c-0.3-1.5-0.8-3-1.1-4.5l0-0.2
				l-0.2,0.1c-0.8,0.4-1.4,0.9-2.2,1.3l-0.2,0.1"/>
			<path class="st10" d="M1465.4,1084.9l0.2-0.1c0.6-0.2,2-0.5,2.6,0l0,0l1.1-0.9l-0.1-0.1c-1-1-2.9-0.8-4.1-0.3l-0.2,0.1
				L1465.4,1084.9z M1452.7,1082l0.2-0.1c1.8-0.5,3.3-0.4,4.8,1l0.1,0.1l1-1.1l-0.2-0.2c-1.9-1.7-3.7-1.9-6-1.3l-0.2,0.1"/>
			<path class="st10" d="M1461.5,1097.9l-0.4,0.2c-3.8,1.4-7.1,0.9-9.8-2.5l-0.3-0.3l-1.1,0.9l0.3,0.4c3.1,3.9,7,4.6,11.4,2.9
				l0.5-0.2L1461.5,1097.9z M1466.2,1090.7v-0.7h-3.3v1.5h3.3V1090.7z M1454.5,1084.6l-0.1,0.2c-0.8,1.7-2,2.3-3.7,2.1l-0.2,0
				l-0.2,1.4l0.2,0c2.3,0.3,4.1-0.6,5.1-2.9l0.1-0.2"/>
			<path class="st10" d="M1469.4,1083.2L1469.4,1083.2l-0.1,0.2c-0.4,0.8-1.3,1.1-1.8,2.1l0,0.1l0,0.1c-0.1,0.6-0.3,2.4-0.8,2.7l0,0
				l0,0l0,0.2l0,0.2l0,0.2l0,0.2c-0.5,4.4,0.2,3.3-2,7.9l-0.1,0.3l-0.1,0.3c-1.3,2.3-3.6,4.7-5.6,6.1l-0.4,0.3l-0.4,0.3l-0.4,0.4
				l-0.7,0.1c-3.8,0.3-6.8-0.6-9.9-3.1l-0.3-0.2l-0.6-0.4l-0.5-0.4l-0.3-0.2l-0.3-0.2l-0.2-0.2l-0.2-0.2l-1.3-0.8l0,0l0,0l0,0l0,0
				l0-0.1l0-0.1c-0.5-1.4-0.9-2.4-1.3-4l-0.1-0.4l-0.1-0.4l-0.1-0.4l-0.2-0.4l-0.1-0.2l-0.1-0.2l-0.1-0.2c-1-1.6-2.7-5.9-2.4-7.8
				l0-0.3l0-0.3l0-0.3l0.1-0.3l0.1-0.2l-0.1-0.3l-0.1-0.3l-0.1-0.2l-0.1-0.2l0-0.1l0-0.1l0-0.1l-0.1,0l0,0c-0.2-0.1-0.4,0.2-0.5,0.3
				l0,0.1l-0.1,0.2l-0.1,0.3l-0.1,0.3c-1.1,6,5.7,13,2.5,18.2l-0.1,0.3l-0.3,0.6l-0.3,0.6l3,2.1l0.4-4.2l9.6,5.8
				c0.6,1.2,0.4,2.8,1,4.1l0.1,0.1l0.2,0l0.2,0l0.2,0l0.2,0l0.3-0.1l0.3-0.1l0.3-0.1l0.3-0.1l0.2,0l0.2,0l0.2,0h0.2l0.1-0.1l0-0.1
				l0-0.1l0-0.1l0-0.1l0-0.1l0,0c0-0.4-0.3-0.8-0.1-1.2l0-0.1l0-0.1l0.1-0.1l0-0.1c0.2-0.3,0.4,0.1,0.6,0l0,0l0.1,0l0-0.1
				c0.1-0.1,0.2-0.4,0.2-0.5l0-0.2l0-0.2c0.2-0.5,0.1-1.1,0.3-1.6l0-0.1l0-0.1l0-0.2l0-0.2l0-0.1l0-0.1v-0.1l0-0.1
				c0-0.1,0.1-0.2,0.2-0.3l0.1,0l0.3-0.2c0.7-0.4,1.4-0.9,2.1-1.3l0.4-0.3l0.4-0.2l0.1-0.1c0.7-0.7,1.7-1.9,2.3-2.7l0.2-0.3l0.2-0.3
				l0.2-0.3c2.8-4.4,4.2-9.7,5.4-14.8l0.1-0.4l0.1-0.4l0.1-0.4"/>
			<path class="st11" d="M1419.9,1133h1.9v11.7h-1.9V1133z M1440.4,1086.1l-0.7,0.2l0.7,3.4l1.4-0.3l-0.7-3.4"/>
			<path class="st10" d="M1470.3,1121.6l-1.6,0.2l-0.2,2.7c-1.6,3.5-2.5,7.3-3.6,11l-0.1,4.7l-2.3,2.5l-1,2.6l-0.8,2.2l-0.6,2.3
				l6.7-3.5l2.8-0.8l1.2-0.6l1-1.5l-0.4-11.1"/>
		</g>
		<path class="st12" d="M1470.3,1121.6l-1.6,0.1l-0.2,2.7c-1.6,3.5-2.5,7.3-3.6,11l-0.1,4.7l-2.3,2.5l-1,2.6l-0.8,2.2l-0.6,2.3
			l6.7-3.5l2.8-0.8l1.2-0.6l1-1.5l-0.4-11.1L1470.3,1121.6z"/>
		<path class="st10" d="M1458.1,1089.2l0,0.4c0,0.7,0,1.5,0.1,2.2l0,0.4l0.1,0.1c2.7,1.5,3.3-0.8,3.2-3.4l0-0.3l0.2,0
			c0.3,0,0.6-0.1,0.9-0.1l0.2,0l0,0.5c0.1,7.5-6.8,7-6.1,0.5l0-0.2l0.1,0c0.3,0,0.6,0,0.9,0h0.2"/>
		<path class="st10" d="M1419.9,1135.3c-1.8,0.6-3.3,2.2-4.4,4c1.5,1.4,3,2.7,4.5,4.1C1419.9,1140.8,1420,1138,1419.9,1135.3"/>
		<path class="st10" d="M1438.8,1103.1l-0.7,0.3l-0.7,0.3l-0.8,0.3l-0.8,0.3c-1.7,0.6-3.4,1.2-5.1,1.8l-0.9,0.3l-1,0.3
			c-5.7,1.6-3.6,0.9-8,4.9l-0.9,0.9l-0.9,0.9l-0.9,0.9c-4.4,4.7-8.2,9.9-11.7,15.5l-0.6,0.9l-0.5,0.9l-0.5,0.9l-0.5,0.9
			c-1.1,2.1-3,4.2-2.8,6.8l0,0.2l0,0.2l0,0.2c0.1,0.4,0.2,0.8,0.3,1.2l0.1,0.2l0.1,0.2l0.1,0.2l0.1,0.2l0.1,0.2l2.3,1.6l2.3,1.6
			l2.3,1.6l2.3,1.6l2.3,1.6l2.3,1.6l2.3,1.6l2.3,1.6l-0.1-0.4l-0.1-0.4l0-0.3l0-0.3l0-0.3l0-0.4l-0.1-0.4l-0.1-0.4l-0.8-0.6
			l-0.9-0.6l-0.9-0.6l-0.9-0.6l-1.8-1.3l-1.8-1.3l-1.8-1.3l-1.8-1.3l-0.9-0.6l-0.9-0.6c-0.8-0.7-3.4-2.1-3.7-3.4l-0.1-0.2l0-0.2
			l0-0.2c0-3,6.5-12.9,8.3-15.3l0.5-0.6l0.5-0.6l0.5-0.6l0.5-0.6l0.9-1.2l1-1.2l1.9-2.3l1.9-2.3l0.2-0.1l0.2-0.1l0.2-0.1l0.2-0.1
			l0.2-0.1l0.2,0l0.2,0l0.2,0l0.2,0l0.2,0l0.2,0c0.7,0.1,1.2,0.5,1.7,1l0.1,0.1l0.2,0.3l0.2,0.3l0.2,0.4l0.2,0.3l0.3,1.3l0.2,1.2
			l0.1,1.1l0.1,1l0,1l0,0.9l-0.1,0.8l-0.1,0.8l-0.2,0.7l-0.2,0.7l-0.3,0.6l-0.3,0.6l-0.3,0.6c-2.2,3.1-6.1,5-8.8,7.5l-0.7,0.6
			l-0.7,0.7l-0.7,0.7l-0.8,0.8l0.7,0.8l0.7,0.8c2.1,2.3,4.3,4.5,6.7,6.5l0.7,0.5l0.7,0.5l0.8,0.7l0.7,0.5l0.2,0l0.2-0.1l0.2-0.1
			l0.2-0.1l0.4-0.2l0.4-0.2l0.4-0.2l0.4-0.2l0.1-0.3l0.2-0.1l0.2-0.1l0-0.1l-0.6-0.5c-3.2-2.3-7.1-4.2-9.7-7.4l-0.2-0.3l0.1-0.2
			l0.1-0.2l0.1-0.2l0.1-0.2c0.4-0.7,0.9-1.3,1.5-1.7l0.3-0.2l0.3-0.2l0.3-0.2l0.3-0.2l0.3-0.1l0.3-0.1l0.3-0.1l0.3-0.1l1-1
			c1.1-1.2,2.1-2.4,3.2-3.5l0.4-0.4l0.4-0.4l0.4-0.4l0.4-0.4c2.9-2,2.5-8.2,2.1-11.4l-0.1-0.3l-0.1-0.3l-0.1-0.3l-0.1-0.3l-0.1-0.2
			c-0.8-1.1-1.8-2.4-2.3-3.7l-0.1-0.2l-0.1-0.2c-0.2-1.1,0.1-1.7,1-2.2l0.2-0.1l0.3-0.1l0.3-0.1c19.2-6,7.6-3.3,24.4-0.1l0.4,0.1
			l0.4,0l0.4,0.1l0-0.4c-0.1-0.5-0.2-1-0.2-1.5l0-0.4h-0.4c-4.3-0.2-8.4-1.8-12.2-4.1l-0.4-0.3"/>
	</g>
	<path class="st10" d="M694.3,600l-1.2-2.8l-1.2,2.8H694.3z M694.5,600.5h-2.8l-0.3,0.8c-0.1,0.3-0.2,0.5-0.2,0.7
		c0,0.2,0.1,0.4,0.3,0.5c0.1,0.1,0.4,0.1,0.8,0.1v0.2h-2.7v-0.2c0.3,0,0.5-0.2,0.7-0.4c0.2-0.2,0.4-0.6,0.7-1.2l2.9-6.6h0.1l2.9,6.8
		c0.3,0.6,0.5,1,0.7,1.2c0.1,0.1,0.3,0.2,0.6,0.2v0.2h-3.9v-0.2h0.2c0.3,0,0.5,0,0.7-0.1c0.1-0.1,0.1-0.2,0.1-0.3c0-0.1,0-0.1,0-0.2
		c0,0-0.1-0.2-0.2-0.5L694.5,600.5z M690.5,594.6v0.2c-0.3,0-0.5,0.1-0.6,0.2c-0.2,0.2-0.5,0.6-0.9,1.4l-1.7,3v2
		c0,0.4,0,0.7,0.1,0.8c0,0.1,0.1,0.2,0.3,0.3c0.1,0.1,0.3,0.1,0.5,0.1h0.4v0.2h-4.5v-0.2h0.4c0.2,0,0.4,0,0.6-0.1
		c0.1-0.1,0.2-0.2,0.2-0.3c0-0.1,0.1-0.4,0.1-0.8v-1.7l-1.9-3.5c-0.4-0.7-0.6-1.1-0.8-1.2c-0.2-0.1-0.4-0.2-0.6-0.2v-0.2h3.9v0.2
		h-0.2c-0.2,0-0.4,0-0.5,0.1c-0.1,0.1-0.1,0.1-0.1,0.2c0,0.1,0.2,0.5,0.5,1.1l1.5,2.7l1.4-2.5c0.4-0.6,0.5-1,0.5-1.2
		c0-0.1,0-0.2-0.2-0.3c-0.1-0.1-0.4-0.2-0.7-0.2v-0.2L690.5,594.6z M679,600l-1.2-2.8l-1.2,2.8H679z M679.2,600.5h-2.8l-0.3,0.8
		c-0.1,0.3-0.2,0.5-0.2,0.7c0,0.2,0.1,0.4,0.3,0.5c0.1,0.1,0.4,0.1,0.8,0.1v0.2h-2.7v-0.2c0.3,0,0.5-0.2,0.7-0.4
		c0.2-0.2,0.4-0.6,0.7-1.2l2.9-6.6h0.1l2.9,6.8c0.3,0.6,0.5,1,0.7,1.2c0.1,0.1,0.3,0.2,0.6,0.2v0.2h-3.9v-0.2h0.2
		c0.3,0,0.5,0,0.7-0.1c0.1-0.1,0.1-0.2,0.1-0.3c0-0.1,0-0.1,0-0.2c0,0-0.1-0.2-0.2-0.5L679.2,600.5z M669.8,594.8v-0.2h4.3v0.2h-0.3
		c-0.2,0-0.4,0-0.6,0.1c-0.1,0.1-0.2,0.2-0.2,0.3c0,0.1-0.1,0.4-0.1,0.8v4c0,0.8-0.1,1.4-0.2,1.7c-0.2,0.4-0.4,0.7-0.8,0.9
		c-0.4,0.2-0.9,0.4-1.4,0.4c-0.7,0-1.2-0.2-1.6-0.5c-0.4-0.4-0.6-0.8-0.6-1.2c0-0.3,0.1-0.5,0.3-0.7c0.2-0.2,0.4-0.3,0.6-0.3
		c0.2,0,0.4,0.1,0.6,0.2c0.2,0.2,0.2,0.4,0.2,0.6c0,0.1,0,0.2,0,0.3c0,0-0.1,0.1-0.2,0.3c-0.1,0.2-0.2,0.3-0.2,0.4
		c0,0.1,0,0.2,0.2,0.3c0.2,0.1,0.3,0.2,0.6,0.2c0.2,0,0.3,0,0.4-0.1c0.1-0.1,0.2-0.2,0.2-0.4c0-0.2,0.1-0.7,0.1-1.6V596
		c0-0.4,0-0.7-0.1-0.8c0-0.1-0.1-0.2-0.3-0.3c-0.1-0.1-0.3-0.1-0.5-0.1H669.8z M667.8,602.6v0.2h-4.2v-0.2h0.3c0.2,0,0.4,0,0.6-0.1
		c0.1-0.1,0.2-0.2,0.2-0.3c0-0.1,0.1-0.4,0.1-0.8V596c0-0.4,0-0.7-0.1-0.8c0-0.1-0.1-0.2-0.3-0.3c-0.1-0.1-0.3-0.1-0.5-0.1h-0.3
		v-0.2h4.2v0.2h-0.3c-0.2,0-0.4,0-0.6,0.1c-0.1,0.1-0.2,0.2-0.2,0.3c0,0.1-0.1,0.4-0.1,0.8v5.4c0,0.4,0,0.7,0.1,0.8
		c0,0.1,0.1,0.2,0.3,0.3c0.1,0.1,0.3,0.1,0.5,0.1L667.8,602.6z M663.3,594.6v0.2c-0.3,0-0.6,0.2-0.8,0.5c-0.2,0.2-0.4,0.7-0.7,1.4
		L659,603h-0.2l-2.8-6.6c-0.3-0.8-0.6-1.3-0.7-1.4c-0.1-0.1-0.3-0.2-0.6-0.3v-0.2h3.9v0.2h-0.1c-0.3,0-0.6,0-0.7,0.1
		c-0.1,0.1-0.1,0.1-0.1,0.3c0,0.1,0,0.2,0,0.3c0,0.1,0.1,0.4,0.3,0.8l1.7,4.1l1.6-3.7c0.2-0.4,0.3-0.7,0.4-0.9
		c0-0.1,0.1-0.3,0.1-0.4c0-0.1,0-0.2-0.1-0.3c-0.1-0.1-0.2-0.2-0.3-0.2c-0.2-0.1-0.4-0.1-0.7-0.1v-0.2"/>
	<g transform="matrix(.11819145644 0 0 -.13104824017 371.17854698662 363.03277136388)">
		<path class="st10" d="M2385.1-1667.9h7.2v-46.4l18-7.6v54h28.1l-8,10.1h-25.1l-0.9,1.2c-5.5,8.6-3.7,14.1,5.7,17.9l1.8,0.7l2,0.5
			c20.6,5.1,47.3-5.6,64.8-16.1l3.8-2.2l6,1.9l-4.4,3.1l-4.3,2.9c-21,14.2-57.4,27.7-82.5,17.8l-1.2-0.4l-1.2-0.5
			c-12.9-6.9-14.3-16-2-24.9l1.2-0.9l1.3-0.9h-18.2L2385.1-1667.9z"/>
		<path class="st10" d="M2460.1-1701.6h-1.8c-36.9,4.6-4.3,29.6,28.8,12.5l4.1-1.7l-2-1.3c-8-4.8-16.1-8.1-25.4-9.4l-1.8-0.1
			L2460.1-1701.6z M2431.1-1689.5v-0.8l0.1-0.9c2-7.8,13.6-13.9,20.5-16.5l1.4-0.4l1.5-0.4c10.4-3.4,19.2-1.9,29.1,2.1l3.2,1.4
			l3.2,1.6v-10.8l18-7.6v54h28.1l-8,10.1h-103.4l8-10.1h57.3v-17.2l-1.8,1.3c-14.5,12-50.9,15.9-57.1-4.2l-0.1-0.8"/>
		<path class="st10" d="M2524.3-1681.9l2.7-3.4l2.7-3.2c10.8-12.2,28.4-25.3,45.8-23.7l1.4,0.3l1.3,0.4c13.8,4.2,10.2,14.1,1.5,21.5
			l-1.1,0.9l-1.1,0.9h25v-26l18-7.6v54h28l-8,10.1h-119.4l8-10.1h73.4v-8.9h-43l-3.1-2.2l1.6-0.8l1.5-0.8l1.4-0.8
			c3.5-2.3,5.7-4.3,8-7.8l0.5-1.1l0.4-1.1c0.6-2.4,1-4.3-0.8-6.1l-0.5-0.4l-0.5-0.4l-0.5-0.4c-11.1-4.7-26.9,6-33.8,14.2l-1.7,2.1
			l-1.6,2.2"/>
		<path class="st10" d="M2668.6-1697.7h-1.4l-1.3,0.1l-1.3,0.1c-3.2,0.3-7.3,1.4-10,3.1l-0.8,0.5l-0.8,0.5c-2.3,1.7-1.8,3.4,0.7,3.8
			l2.5,0.3l2.5,0.4l2.3,0.4l2.2,0.5c3.9,0.8,9.7,2.2,12.8,4.9l0.5,0.6l0.2,0.3l0.1,0.4l0.1,0.3v0.8l-0.2,0.5l-0.2,0.5l-0.3,0.6
			l-0.8,1.4l-1.2,1.5l-1.5,1.8l-1.9,2l-2.3,2.1l-2.5,2.3h31v-21.6l-1.9-1c-7-3.6-15.2-6.4-23.1-7.2l-1.5-0.1H2668.6z M2636.5-1681.9
			l0.6-1.4c10.7-21.9,34.2-31.5,56.9-20.8l2.7,1.3v-11.4l18-7.6v54h28l-8,10.1h-101.8l8-10.1h15.7c12-8.7-9-14.1-15.3-13.9l-2.4-0.1
			"/>
		<path class="st10" d="M2735.1-1667.9h6.8v-46.4l18-7.6v54h28.1l-8,10.1h-53"/>
	</g>
	<path class="st13" d="M593.4,555.9h280"/>
	<path class="st13" d="M734.2,565.7v50"/>
</g>
</svg>
