<svg xmlns:dc="http://purl.org/dc/elements/1.1/" xmlns:cc="http://creativecommons.org/ns#" xmlns:rdf="http://www.w3.org/1999/02/22-rdf-syntax-ns#" xmlns:svg="http://www.w3.org/2000/svg" xmlns="http://www.w3.org/2000/svg" viewBox="0 0 311.28 59.493332" height="59.493332" width="311.28" xml:space="preserve" id="svg2" version="1.1" xmlns:xlink="http://www.w3.org/1999/xlink">
 <metadata id="metadata8">
  <rdf:RDF>
   <cc:Work rdf:about="">
    <dc:format>
     image/svg+xml
    </dc:format>
    <dc:type rdf:resource="http://purl.org/dc/dcmitype/StillImage">
    </dc:type>
   </cc:Work>
  </rdf:RDF>
 </metadata>
 <defs id="defs6">
 </defs>
 <g transform="matrix(1.3333333,0,0,-1.3333333,0,59.493333)" id="g10">
  <g transform="scale(0.1)" id="g12">
   <path id="path14" style="fill:#f58220;fill-opacity:1;fill-rule:nonzero;stroke:none" d="M 116.461,349.246 C 218.68,450.555 342.246,476.727 391.539,407.508 440.816,338.305 397.68,199.215 295.438,97.9258 193.258,-3.36328 69.6797,-29.5234 20.3867,39.6758 -28.8906,108.906 14.2578,247.965 116.461,349.246">
   </path>
   <path id="path16" style="fill:#b02a30;fill-opacity:1;fill-rule:nonzero;stroke:none" d="m 184.109,403.266 c -11,-8.25 -22.699,-17.899 -33.742,-28.93 C 60.7773,286.145 23.5781,164.887 67.6875,104.266 113.148,43.6172 223.391,65.668 314.34,155.215 c 48.93,47.57 82.008,103.371 95.777,155.031 4.141,37.891 -1.379,71.672 -18.609,97.149 -39.258,53.75 -123.328,49.621 -207.399,-4.129">
   </path>
   <path id="path18" style="fill:#ffffff;fill-opacity:1;fill-rule:nonzero;stroke:none" d="M 234.77,47.9453 C 186.91,12.0273 137.488,-5.78516 89.25,1.67578 c 20.238,-1.05078 36.598,21.39842 50,51.57032 13.609,30.8984 21.77,59.5589 28.301,86.3789 9.488,42.461 10.226,72.813 5.387,79.313 -8.18,10.808 -26.778,8.007 -47.829,-4.083 -10.089,-5.578 -23.48,-1.828 -7.648,17.321 16.039,19.371 79.707,65.898 102.617,73.172 25.152,7.25 53.813,-2.621 44.11,-30.16 C 257.309,255.086 169.219,23.9453 234.77,47.9453 m 72.078,358.4997 c 11.902,-11.91 4.64,-37.988 -15.649,-58.449 -20.469,-20.301 -47.129,-27.558 -58.672,-15.828 -12.277,11.727 -5.019,38.168 15.461,58.836 20.672,20.652 47.301,27 58.86,15.441">
   </path>
   <path id="path20" style="fill:#004a80;fill-opacity:1;fill-rule:nonzero;stroke:none" d="m 409.148,4.1875 59.79,218.5395 h 77.41 L 486.551,4.1875 Z M 733.68,152.285 c 0.847,10.563 -1.582,18.512 -7.36,23.883 -5.769,5.309 -14.812,7.969 -27.101,7.969 -19.66,0 -36.391,-6.012 -50.321,-17.992 -13.847,-12 -23.808,-29.028 -29.878,-51.188 -5.84,-21.3515 -5.082,-37.7304 2.218,-49.1718 7.301,-11.4688 20.621,-17.1797 40.012,-17.1797 14.188,0 26.41,3.2617 36.699,9.8593 10.207,6.5118 18.102,16.1915 23.61,28.9102 h 80.152 C 791,58.7461 772.777,37.6172 747.148,23.9766 721.461,10.3555 686.809,3.50781 643.188,3.50781 c -42.079,0 -72.219,9.51949 -90.54,28.60939 -18.25,19.0508 -22.687,45.707 -13.347,79.8988 10.258,37.441 30.25,66.308 60.047,86.601 29.82,20.278 67.242,30.438 112.14,30.438 39,0 67.063,-6.43 84.172,-19.321 17.07,-12.886 23.059,-32.066 17.84,-57.449 z M 800.199,4.1875 860,222.727 h 77.391 L 877.59,4.1875 Z M 1124.73,152.285 c 0.86,10.563 -1.6,18.512 -7.36,23.883 -5.77,5.309 -14.77,7.969 -27.11,7.969 -19.64,0 -36.37,-6.012 -50.29,-17.992 -13.89,-12 -23.83,-29.028 -29.89,-51.188 -5.84,-21.3515 -5.07,-37.7304 2.21,-49.1718 7.3,-11.4688 20.61,-17.1797 40,-17.1797 14.21,0 26.42,3.2617 36.7,9.8593 10.24,6.5118 18.13,16.1915 23.65,28.9102 h 80.1 C 1182.06,58.7461 1163.85,37.6172 1138.18,23.9766 1112.53,10.3555 1077.85,3.50781 1034.26,3.50781 c -42.08,0 -72.24,9.51949 -90.549,28.60939 -18.262,19.0508 -22.703,45.707 -13.344,79.8988 10.242,37.441 30.231,66.308 60.051,86.601 29.802,20.278 67.222,30.438 112.142,30.438 38.97,0 67.06,-6.43 84.18,-19.321 17.04,-12.886 23.02,-32.066 17.8,-57.449 z m 66.52,-148.0975 59.8,218.5395 h 77.4 L 1268.65,4.1875 Z m 302.74,174.2505 -12.48,-45.641 h 39.93 c 9.75,0 17.51,1.937 23.37,5.719 5.85,3.769 9.85,9.531 11.91,17.101 2.07,7.488 1.21,13.207 -2.6,17.039 -3.84,3.852 -10.56,5.782 -20.19,5.782 z m -22.41,-81.9614 -13.11,-47.9805 h 45.9 c 10.88,0 19.67,2.0117 26.33,6.0586 6.7,4.0625 11.13,10.0195 13.29,17.9726 2.16,7.879 1.02,13.8477 -3.37,17.8907 -4.45,4.0468 -12.12,6.0586 -23.12,6.0586 z M 1372.81,4.1875 1432.6,222.727 h 140.33 c 16.67,0 28.71,-0.641 35.98,-2 7.34,-1.332 13.52,-3.493 18.48,-6.59 6.73,-4.16 11.15,-9.981 13.24,-17.492 2.09,-7.508 1.76,-16.348 -1.02,-26.508 -3.37,-12.34 -9.8,-22.461 -19.36,-30.352 -9.52,-7.93 -22.83,-14.211 -40.01,-18.808 17.96,-4.352 30.02,-11.129 36.17,-20.352 6.15,-9.1484 7.02,-21.6406 2.74,-37.3281 C 1613.84,43.9375 1603.85,29.2773 1589.2,19.207 1574.52,9.1875 1555.54,4.1875 1532.22,4.1875 Z m 393.16,66.0469 c -23.53,0 -39.97,-1.4492 -49.33,-4.4492 -9.35,-2.9375 -15.06,-8.1485 -17.1,-15.5274 -1.35,-4.9922 -0.33,-8.9414 3.03,-11.7812 3.37,-2.7813 8.86,-4.1914 16.4,-4.1914 12.37,0 22.47,2.7617 30.18,8.3398 7.71,5.6016 13.11,14.0117 16.15,25.2305 z m -10.38,-43.5 c -9.32,-8.7891 -20.12,-15.3086 -32.35,-19.56643 -12.23,-4.26172 -26.21,-6.382814 -41.98,-6.382814 -22.44,0 -38.6,3.851564 -48.57,11.531244 -10,7.75 -13.04,18.6289 -9.18,32.7891 5.26,19.2187 19.5,33.1211 42.64,41.6718 23.21,8.5586 59.27,13.0079 108.32,13.4107 l 0.64,1.707 0.66,1.832 c 2.13,7.82 1.27,13.64 -2.5,17.531 -3.83,3.867 -10.58,5.789 -20.31,5.789 -8.81,0 -15.97,-1.43 -21.45,-4.199 -5.47,-2.84 -9.41,-7.082 -11.9,-12.711 h -67.23 c 4.93,16.91 16.63,29.437 35.2,37.699 18.49,8.23 44.47,12.391 77.85,12.391 32.02,0 54.55,-4.809 67.58,-14.469 13.03,-9.613 16.83,-24.301 11.44,-43.953 l -21.23,-77.5902 c -1.33,-4.8789 -2.18,-8.75 -2.52,-11.7382 -0.34,-2.92972 -0.29,-5.71097 0.12,-8.2891 h -67.52 c -0.37,3.64844 -0.3,7.3281 0.08,11.0195 0.39,3.75 1.14,7.5196 2.21,11.5274 m 89.45,-22.5469 34.7,126.8475 c 1.41,5.16 2.44,9.86 3.09,14.199 0.72,4.352 1.08,8.121 1.11,11.293 h 72.79 c 0.28,-2.382 0.06,-5.519 -0.58,-9.402 -0.65,-3.898 -1.82,-8.969 -3.52,-15.18 11.72,9.563 23.46,16.7 35.27,21.301 11.86,4.649 24.14,6.981 36.9,6.981 23.65,0 40,-5.872 49.06,-17.653 9.09,-11.75 10.52,-28.937 4.34,-51.5584 L 2054.42,4.1875 h -72.61 l 23.15,84.6172 c 3.18,11.6133 3.19,20.1523 0,25.4803 -3.19,5.32 -9.8,8 -19.82,8 -11.79,0 -21.56,-3.539 -29.34,-10.668 -7.75,-7.152 -13.61,-17.8201 -17.54,-32.16 L 1917.68,4.1875 Z m 306.8,0 h -71.7 l 59.82,218.5395 h 71.68 l -35.06,-128.1723 72.23,61.9723 h 85.84 l -80.43,-67.7223 55.16,-84.6172 h -90.62 l -45.93,76.7773 -20.99,-76.7773">
   </path>
  </g>
 </g>
</svg>